M48
INCH,TZ
T1C0.028
T2C0.033
T3C0.039
T4C0.040
T5C0.047
T6C0.048
%
G90
G05
T1
X67228Y-51303
X67665Y-53890
X68748Y-54169
X70744Y-52760
X70854Y-51157
X71906Y-52307
X72063Y-50795
T2
X65657Y-49701
X65657Y-52457
T3
X69358Y-48217
X69472Y-45917
X69472Y-46917
X73222Y-49252
T4
X71287Y-54323
X72287Y-54323
X73236Y-50654
X73287Y-54323
X74287Y-54323
T5
X65661Y-46638
X66645Y-45654
X66645Y-47622
T6
X71570Y-46799
X74130Y-46799
T0
M30
