<?xml version="1.0" standalone="no"?>
 <!DOCTYPE svg PUBLIC "-//W3C//DTD SVG 1.1//EN" 
 "http://www.w3.org/Graphics/SVG/1.1/DTD/svg11.dtd"> 
<svg xmlns="http://www.w3.org/2000/svg" version="1.1" 
    width="29.7002cm" height="21.0007cm" viewBox="0 0 116930 82680 ">
<title>SVG Picture created as xray_detector_pcb-F.Cu.svg date 2016/04/19 22:56:38 </title>
  <desc>Picture generated by PCBNEW </desc>
<g style="fill:#000000; fill-opacity:1;stroke:#000000; stroke-opacity:1;
stroke-linecap:round; stroke-linejoin:round; "
 transform="translate(0 0) scale(1 1)">
</g>
<g style="fill:#000000; fill-opacity:0.0; 
stroke:#000000; stroke-width:-0.000393701; stroke-opacity:1; 
stroke-linecap:round; stroke-linejoin:round;">
</g>
<g style="fill:#000000; fill-opacity:0.0; 
stroke:#000000; stroke-width:0; stroke-opacity:1; 
stroke-linecap:round; stroke-linejoin:round;">
</g>
<g style="fill:#000000; fill-opacity:1.0; 
stroke:#000000; stroke-width:0; stroke-opacity:1; 
stroke-linecap:round; stroke-linejoin:round;">
<polyline style="fill-rule:evenodd;"
points="70610,48063
71066,48607
70824,48809
70369,48266
70610,48063
" /> 
<polyline style="fill-rule:evenodd;"
points="70037,48544
70493,49087
70251,49290
69796,48747
70037,48544
" /> 
<polyline style="fill-rule:evenodd;"
points="71083,49209
71539,49752
71298,49955
70842,49412
71083,49209
" /> 
<polyline style="fill-rule:evenodd;"
points="70467,51560
71017,51560
71017,51730
70467,51730
70467,51560
" /> 
<polyline style="fill-rule:evenodd;"
points="70467,51810
71017,51810
71017,51980
70467,51980
70467,51810
" /> 
<polyline style="fill-rule:evenodd;"
points="70467,52070
71017,52070
71017,52240
70467,52240
70467,52070
" /> 
<polyline style="fill-rule:evenodd;"
points="70467,52320
71017,52320
71017,52490
70467,52490
70467,52320
" /> 
<polyline style="fill-rule:evenodd;"
points="72667,52320
73217,52320
73217,52490
72667,52490
72667,52320
" /> 
<polyline style="fill-rule:evenodd;"
points="72667,52065
73217,52065
73217,52235
72667,52235
72667,52065
" /> 
<polyline style="fill-rule:evenodd;"
points="72667,51810
73217,51810
73217,51980
72667,51980
72667,51810
" /> 
<polyline style="fill-rule:evenodd;"
points="72667,51555
73217,51555
73217,51725
72667,51725
72667,51555
" /> 
<polyline style="fill-rule:evenodd;"
points="73785,52511
73490,52511
73490,52039
73785,52039
73785,52511
" /> 
<polyline style="fill-rule:evenodd;"
points="73785,51763
73490,51763
73490,51291
73785,51291
73785,51763
" /> 
<polyline style="fill-rule:evenodd;"
points="70027,53923
70027,54415
69437,54415
69437,53923
70027,53923
" /> 
<polyline style="fill-rule:evenodd;"
points="69043,53923
69043,54415
68452,54415
68452,53923
69043,53923
" /> 
<polyline style="fill-rule:evenodd;"
points="66537,49622
66242,49622
66242,49149
66537,49149
66537,49622
" /> 
<polyline style="fill-rule:evenodd;"
points="66537,48874
66242,48874
66242,48401
66537,48401
66537,48874
" /> 
<polyline style="fill-rule:evenodd;"
points="72259,46326
72259,47271
70881,47271
70881,46326
72259,46326
" /> 
<polyline style="fill-rule:evenodd;"
points="74819,46326
74819,47271
73441,47271
73441,46326
74819,46326
" /> 
<polyline style="fill-rule:evenodd;"
points="71120,49980
71415,49980
71415,50452
71120,50452
71120,49980
" /> 
<polyline style="fill-rule:evenodd;"
points="71120,50728
71415,50728
71415,51200
71120,51200
71120,50728
" /> 
<polyline style="fill-rule:evenodd;"
points="65302,49149
66011,49149
66011,50094
65302,50094
65302,49149
" /> 
<polyline style="fill-rule:evenodd;"
points="65302,51984
66011,51984
66011,52929
65302,52929
65302,51984
" /> 
<polyline style="fill-rule:evenodd;"
points="69866,46543
69866,47291
69078,47291
69078,46543
69866,46543
" /> 
<circle cx="69472.4" cy="45917.3" r="374.016" /> 
</g>
<g style="fill:#000000; fill-opacity:1.0; 
stroke:#000000; stroke-width:39.3701; stroke-opacity:1; 
stroke-linecap:round; stroke-linejoin:round;">
</g>
<g style="fill:#000000; fill-opacity:1.0; 
stroke:#000000; stroke-width:0; stroke-opacity:1; 
stroke-linecap:round; stroke-linejoin:round;">
<polyline style="fill-rule:evenodd;"
points="67559,52503
66889,52503
66889,51716
67559,51716
67559,52503
" /> 
<polyline style="fill-rule:evenodd;"
points="67559,50929
66889,50929
66889,50141
67559,50141
67559,50929
" /> 
<polyline style="fill-rule:evenodd;"
points="69220,49106
69220,49775
68433,49775
68433,49106
69220,49106
" /> 
<polyline style="fill-rule:evenodd;"
points="67645,49106
67645,49775
66858,49775
66858,49106
67645,49106
" /> 
<polyline style="fill-rule:evenodd;"
points="68527,50074
69196,50074
69196,50862
68527,50862
68527,50074
" /> 
<polyline style="fill-rule:evenodd;"
points="68527,51649
69196,51649
69196,52437
68527,52437
68527,51649
" /> 
<polyline style="fill-rule:evenodd;"
points="72397,51188
71728,51188
71728,50401
72397,50401
72397,51188
" /> 
<polyline style="fill-rule:evenodd;"
points="72397,49614
71728,49614
71728,48826
72397,48826
72397,49614
" /> 
<polyline style="fill-rule:evenodd;"
points="69500,53460
69500,52791
70287,52791
70287,53460
69500,53460
" /> 
<polyline style="fill-rule:evenodd;"
points="71074,53460
71074,52791
71862,52791
71862,53460
71074,53460
" /> 
<polyline style="fill-rule:evenodd;"
points="69515,49551
70185,49551
70185,50338
69515,50338
69515,49551
" /> 
<polyline style="fill-rule:evenodd;"
points="69515,51125
70185,51125
70185,51913
69515,51913
69515,51125
" /> 
<polyline style="fill-rule:evenodd;"
points="72496,53468
72496,52799
73283,52799
73283,53468
72496,53468
" /> 
<polyline style="fill-rule:evenodd;"
points="74070,53468
74070,52799
74858,52799
74858,53468
74070,53468
" /> 
<polyline style="fill-rule:evenodd;"
points="74791,52149
74122,52149
74122,51362
74791,51362
74791,52149
" /> 
<polyline style="fill-rule:evenodd;"
points="74791,50574
74122,50574
74122,49787
74791,49787
74791,50574
" /> 
<circle cx="65661.4" cy="46637.8" r="492" /> 
</g>
<g style="fill:#000000; fill-opacity:1.0; 
stroke:#000000; stroke-width:39.3701; stroke-opacity:1; 
stroke-linecap:round; stroke-linejoin:round;">
</g>
<g style="fill:#000000; fill-opacity:1.0; 
stroke:#000000; stroke-width:0; stroke-opacity:1; 
stroke-linecap:round; stroke-linejoin:round;">
<circle cx="66645.4" cy="45653.8" r="492" /> 
</g>
<g style="fill:#000000; fill-opacity:1.0; 
stroke:#000000; stroke-width:39.3701; stroke-opacity:1; 
stroke-linecap:round; stroke-linejoin:round;">
</g>
<g style="fill:#000000; fill-opacity:1.0; 
stroke:#000000; stroke-width:0; stroke-opacity:1; 
stroke-linecap:round; stroke-linejoin:round;">
<circle cx="66645.4" cy="47621.8" r="492" /> 
</g>
<g style="fill:#000000; fill-opacity:1.0; 
stroke:#000000; stroke-width:39.3701; stroke-opacity:1; 
stroke-linecap:round; stroke-linejoin:round;">
</g>
<g style="fill:#000000; fill-opacity:1.0; 
stroke:#000000; stroke-width:0; stroke-opacity:1; 
stroke-linecap:round; stroke-linejoin:round;">
<circle cx="69358.3" cy="48216.5" r="492" /> 
</g>
<g style="fill:#000000; fill-opacity:1.0; 
stroke:#000000; stroke-width:39.3701; stroke-opacity:1; 
stroke-linecap:round; stroke-linejoin:round;">
</g>
<g style="fill:#000000; fill-opacity:1.0; 
stroke:#000000; stroke-width:0; stroke-opacity:1; 
stroke-linecap:round; stroke-linejoin:round;">
<circle cx="73222" cy="49251.8" r="492" /> 
</g>
<g style="fill:#000000; fill-opacity:1.0; 
stroke:#000000; stroke-width:39.3701; stroke-opacity:1; 
stroke-linecap:round; stroke-linejoin:round;">
</g>
<g style="fill:#000000; fill-opacity:1.0; 
stroke:#000000; stroke-width:0; stroke-opacity:1; 
stroke-linecap:round; stroke-linejoin:round;">
<polyline style="fill-rule:evenodd;"
points="72796,51093
72796,50213
73676,50213
73676,51093
72796,51093
" /> 
<polyline style="fill-rule:evenodd;"
points="73947,53922
74627,53922
74627,54722
73947,54722
73947,53922
" /> 
</g>
<g style="fill:#000000; fill-opacity:1.0; 
stroke:#000000; stroke-width:680; stroke-opacity:1; 
stroke-linecap:round; stroke-linejoin:round;">
</g>
<g style="fill:#000000; fill-opacity:0.0; 
stroke:#000000; stroke-width:680; stroke-opacity:1; 
stroke-linecap:round; stroke-linejoin:round;">
<path d="M73287 54262
L73287 54382
" />
<path d="M72287 54262
L72287 54382
" />
<path d="M71287 54262
L71287 54382
" />
</g>
<g style="fill:#000000; fill-opacity:0.0; 
stroke:#000000; stroke-width:0; stroke-opacity:1; 
stroke-linecap:round; stroke-linejoin:round;">
</g>
<g style="fill:#000000; fill-opacity:1.0; 
stroke:#000000; stroke-width:0; stroke-opacity:1; 
stroke-linecap:round; stroke-linejoin:round;">
<polyline style="fill-rule:evenodd;"
points="67776,53482
67435,53679
67317,53475
67658,53278
67776,53482
" /> 
<polyline style="fill-rule:evenodd;"
points="67520,53039
67179,53236
67061,53031
67402,52834
67520,53039
" /> 
<polyline style="fill-rule:evenodd;"
points="68296,52886
67955,53083
67837,52879
68178,52682
68296,52886
" /> 
<circle cx="70744.1" cy="52759.8" r="177.165" /> 
</g>
<g style="fill:#000000; fill-opacity:1.0; 
stroke:#000000; stroke-width:39.3701; stroke-opacity:1; 
stroke-linecap:round; stroke-linejoin:round;">
</g>
<g style="fill:#000000; fill-opacity:1.0; 
stroke:#000000; stroke-width:0; stroke-opacity:1; 
stroke-linecap:round; stroke-linejoin:round;">
<circle cx="67228.3" cy="51303.1" r="177.165" /> 
</g>
<g style="fill:#000000; fill-opacity:1.0; 
stroke:#000000; stroke-width:39.3701; stroke-opacity:1; 
stroke-linecap:round; stroke-linejoin:round;">
</g>
<g style="fill:#000000; fill-opacity:1.0; 
stroke:#000000; stroke-width:0; stroke-opacity:1; 
stroke-linecap:round; stroke-linejoin:round;">
<circle cx="67665.4" cy="53889.8" r="177.165" /> 
</g>
<g style="fill:#000000; fill-opacity:1.0; 
stroke:#000000; stroke-width:39.3701; stroke-opacity:1; 
stroke-linecap:round; stroke-linejoin:round;">
</g>
<g style="fill:#000000; fill-opacity:1.0; 
stroke:#000000; stroke-width:0; stroke-opacity:1; 
stroke-linecap:round; stroke-linejoin:round;">
<circle cx="68748" cy="54169.3" r="177.165" /> 
</g>
<g style="fill:#000000; fill-opacity:1.0; 
stroke:#000000; stroke-width:39.3701; stroke-opacity:1; 
stroke-linecap:round; stroke-linejoin:round;">
</g>
<g style="fill:#000000; fill-opacity:1.0; 
stroke:#000000; stroke-width:0; stroke-opacity:1; 
stroke-linecap:round; stroke-linejoin:round;">
<circle cx="70854.3" cy="51157.5" r="177.165" /> 
</g>
<g style="fill:#000000; fill-opacity:1.0; 
stroke:#000000; stroke-width:39.3701; stroke-opacity:1; 
stroke-linecap:round; stroke-linejoin:round;">
</g>
<g style="fill:#000000; fill-opacity:1.0; 
stroke:#000000; stroke-width:0; stroke-opacity:1; 
stroke-linecap:round; stroke-linejoin:round;">
<circle cx="71905.5" cy="52307.1" r="177.165" /> 
</g>
<g style="fill:#000000; fill-opacity:1.0; 
stroke:#000000; stroke-width:39.3701; stroke-opacity:1; 
stroke-linecap:round; stroke-linejoin:round;">
</g>
<g style="fill:#000000; fill-opacity:1.0; 
stroke:#000000; stroke-width:0; stroke-opacity:1; 
stroke-linecap:round; stroke-linejoin:round;">
<circle cx="72063" cy="50795.3" r="177.165" /> 
</g>
<g style="fill:#000000; fill-opacity:1.0; 
stroke:#000000; stroke-width:39.3701; stroke-opacity:1; 
stroke-linecap:round; stroke-linejoin:round;">
</g>
<g style="fill:#000000; fill-opacity:1.0; 
stroke:#000000; stroke-width:157.48; stroke-opacity:1; 
stroke-linecap:round; stroke-linejoin:round;">
</g>
<g style="fill:#000000; fill-opacity:0.0; 
stroke:#000000; stroke-width:157.48; stroke-opacity:1; 
stroke-linecap:round; stroke-linejoin:round;">
<path d="M70742 52405
L70742 52758
" />
<path d="M70742 52758
L70744 52759
" />
</g>
<g style="fill:#000000; fill-opacity:0.0; 
stroke:#000000; stroke-width:196.85; stroke-opacity:1; 
stroke-linecap:round; stroke-linejoin:round;">
<path d="M67224 50535
L67224 51299
" />
<path d="M67224 51299
L67228 51303
" />
<path d="M67547 53478
L67547 53771
" />
<path d="M67547 53771
L67665 53889
" />
</g>
<g style="fill:#000000; fill-opacity:0.0; 
stroke:#000000; stroke-width:157.48; stroke-opacity:1; 
stroke-linecap:round; stroke-linejoin:round;">
<path d="M71267 51015
L70854 51059
" />
<path d="M70854 51059
L70854 51157
" />
<path d="M71267 50964
L71267 51015
" />
<path d="M71267 50964
L71271 50964
" />
<path d="M66389 48637
L66389 47877
" />
<path d="M66389 47877
L66645 47621
" />
</g>
<g style="fill:#000000; fill-opacity:0.0; 
stroke:#000000; stroke-width:98.4252; stroke-opacity:1; 
stroke-linecap:round; stroke-linejoin:round;">
<path d="M66389 49385
L67196 49385
" />
<path d="M67196 49385
L67251 49440
" />
<path d="M65613 49437
L66338 49437
" />
<path d="M66338 49437
L66389 49385
" />
</g>
<g style="fill:#000000; fill-opacity:0.0; 
stroke:#000000; stroke-width:157.48; stroke-opacity:1; 
stroke-linecap:round; stroke-linejoin:round;">
<path d="M71267 50216
L71267 49659
" />
<path d="M71267 49659
L71190 49582
" />
<path d="M69660 47586
L69779 47586
" />
<path d="M68578 47586
L69660 47586
" />
<path d="M66645 45653
L68578 47586
" />
<path d="M70133 48342
L71267 49657
" />
<path d="M70133 47940
L70133 48342
" />
<path d="M69779 47586
L70133 47940
" />
</g>
<g style="fill:#000000; fill-opacity:0.0; 
stroke:#000000; stroke-width:196.85; stroke-opacity:1; 
stroke-linecap:round; stroke-linejoin:round;">
<path d="M72942 51640
L72727 51640
" />
<path d="M72727 51640
L72062 50795
" />
<path d="M71224 50129
L72062 50795
" />
<path d="M72159 52450
L72015 52307
" />
<path d="M72015 52307
L71905 52307
" />
<path d="M72088 53725
L72159 53655
" />
<path d="M72159 53655
L72159 52450
" />
<path d="M71287 54262
L71824 53725
" />
<path d="M71824 53725
L72088 53725
" />
</g>
<g style="fill:#000000; fill-opacity:0.0; 
stroke:#000000; stroke-width:157.48; stroke-opacity:1; 
stroke-linecap:round; stroke-linejoin:round;">
<path d="M71287 54322
L71287 54262
" />
<path d="M72062 50795
L72062 50736
" />
</g>
<g style="fill:#000000; fill-opacity:0.0; 
stroke:#000000; stroke-width:196.85; stroke-opacity:1; 
stroke-linecap:round; stroke-linejoin:round;">
<path d="M67291 53035
L67291 52177
" />
<path d="M67291 52177
L67224 52110
" />
<path d="M67291 53035
L66235 53035
" />
<path d="M66235 53035
L65657 52456
" />
<path d="M65657 52456
L65685 52456
" />
</g>
<g style="fill:#000000; fill-opacity:0.0; 
stroke:#000000; stroke-width:98.4252; stroke-opacity:1; 
stroke-linecap:round; stroke-linejoin:round;">
<path d="M65968 52094
L65968 52125
" />
<path d="M72850 46263
L72503 45917
" />
<path d="M72503 45917
L69472 45917
" />
<path d="M72850 47496
L72850 46263
" />
<path d="M74456 49102
L72850 47496
" />
<path d="M74456 50181
L74456 49102
" />
<path d="M72889 53133
L72889 52458
" />
<path d="M72889 52458
L72942 52405
" />
<path d="M73637 52275
L73637 53972
" />
<path d="M73637 53972
L73287 54322
" />
<path d="M72942 52405
L73507 52405
" />
<path d="M73507 52405
L73637 52275
" />
</g>
<g style="fill:#000000; fill-opacity:0.0; 
stroke:#000000; stroke-width:157.48; stroke-opacity:1; 
stroke-linecap:round; stroke-linejoin:round;">
<path d="M73640 51611
L73358 51893
" />
<path d="M73358 51893
L72945 51893
" />
</g>
<g style="fill:#000000; fill-opacity:0.0; 
stroke:#000000; stroke-width:196.85; stroke-opacity:1; 
stroke-linecap:round; stroke-linejoin:round;">
<path d="M73637 51527
L73637 51606
" />
<path d="M73637 51527
L73637 51055
" />
<path d="M73637 51055
L73236 50653
" />
<path d="M73637 51527
L74228 51527
" />
</g>
<g style="fill:#000000; fill-opacity:0.0; 
stroke:#000000; stroke-width:98.4252; stroke-opacity:1; 
stroke-linecap:round; stroke-linejoin:round;">
<path d="M74228 51527
L74456 51755
" />
<path d="M73039 50653
L73236 50653
" />
<path d="M74338 51874
L74456 51755
" />
<path d="M69732 54169
L69732 53287
" />
<path d="M69732 53287
L69893 53125
" />
</g>
<g style="fill:#000000; fill-opacity:0.0; 
stroke:#000000; stroke-width:196.85; stroke-opacity:1; 
stroke-linecap:round; stroke-linejoin:round;">
<path d="M72062 49220
L72062 47291
" />
<path d="M72062 47291
L71570 46799
" />
<path d="M70717 48436
L71086 47724
" />
<path d="M71086 47724
L71570 46799
" />
<path d="M65003 54562
L65003 47295
" />
<path d="M65003 47295
L65661 46637
" />
<path d="M65448 55007
L65003 54562
" />
<path d="M73662 55007
L65448 55007
" />
<path d="M74287 54322
L74287 54382
" />
<path d="M74287 54382
L73662 55007
" />
</g>
<g style="fill:#000000; fill-opacity:0.0; 
stroke:#000000; stroke-width:98.4252; stroke-opacity:1; 
stroke-linecap:round; stroke-linejoin:round;">
<path d="M74287 54322
L74287 53311
" />
<path d="M74287 53311
L74464 53133
" />
</g>
<g style="fill:#000000; fill-opacity:0.0; 
stroke:#000000; stroke-width:196.85; stroke-opacity:1; 
stroke-linecap:round; stroke-linejoin:round;">
<path d="M68067 52883
L68067 52838
" />
<path d="M68067 52838
L68862 52043
" />
</g>
<g style="fill:#000000; fill-opacity:0.0; 
stroke:#000000; stroke-width:98.4252; stroke-opacity:1; 
stroke-linecap:round; stroke-linejoin:round;">
<path d="M68618 52043
L68862 52043
" />
<path d="M69187 52155
L70742 52155
" />
<path d="M69074 52043
L69187 52155
" />
<path d="M68862 52043
L69074 52043
" />
<path d="M70742 51645
L70606 51645
" />
<path d="M69850 50003
L69850 49944
" />
<path d="M70606 51645
L70401 51440
" />
<path d="M70401 51440
L70401 50555
" />
<path d="M70401 50555
L69850 50003
" />
<path d="M72942 52150
L72252 52150
" />
<path d="M71747 51645
L70742 51645
" />
<path d="M72252 52150
L71747 51645
" />
<path d="M71468 53125
L71468 52248
" />
<path d="M71468 52248
L71115 51895
" />
<path d="M71115 51895
L70742 51895
" />
<path d="M70742 51895
L70226 51895
" />
<path d="M70226 51895
L69850 51519
" />
</g>
<g style="fill:#000000; fill-opacity:0.0; 
stroke:#000000; stroke-width:196.85; stroke-opacity:1; 
stroke-linecap:round; stroke-linejoin:round;">
<path d="M70144 48917
L69614 49129
" />
<path d="M69614 49129
L68826 49440
" />
</g>
<g style="fill:#000000; fill-opacity:0.0; 
stroke:#000000; stroke-width:98.4252; stroke-opacity:1; 
stroke-linecap:round; stroke-linejoin:round;">
<path d="M68826 49440
L68921 49440
" />
<path d="M68826 49440
L68826 50433
" />
<path d="M68826 50433
L68862 50468
" />
</g> 
</svg>
