G04 #@! TF.FileFunction,Legend,Bot*
%FSLAX46Y46*%
G04 Gerber Fmt 4.6, Leading zero omitted, Abs format (unit mm)*
G04 Created by KiCad (PCBNEW 4.0.0-rc1-stable) date Mon 04 Apr 2016 11:20:45 PM PDT*
%MOMM*%
G01*
G04 APERTURE LIST*
%ADD10C,0.100000*%
%ADD11C,0.150000*%
G04 APERTURE END LIST*
D10*
D11*
X189081774Y-123784801D02*
G75*
G03X189081774Y-123784801I-8004871J0D01*
G01*
X182403561Y-122747523D02*
X182253247Y-122756545D01*
X182023263Y-122694922D01*
X181943595Y-122624276D01*
X181909924Y-122565955D01*
X181888577Y-122461637D01*
X181913226Y-122369644D01*
X181983872Y-122289976D01*
X182042193Y-122256304D01*
X182146511Y-122234956D01*
X182342822Y-122238259D01*
X182447140Y-122216912D01*
X182505461Y-122183240D01*
X182576107Y-122103572D01*
X182600756Y-122011579D01*
X182579409Y-121907262D01*
X182545737Y-121848941D01*
X182466069Y-121778295D01*
X182236086Y-121716671D01*
X182085772Y-121725693D01*
X181425310Y-122534700D02*
X181684129Y-121568775D01*
X181316157Y-121470177D01*
X181211839Y-121491524D01*
X181153518Y-121525196D01*
X181082872Y-121604864D01*
X181045898Y-121742853D01*
X181067245Y-121847170D01*
X181100917Y-121905492D01*
X181180585Y-121976137D01*
X181548557Y-122074735D01*
X179953423Y-122140309D02*
X180505381Y-122288206D01*
X180229402Y-122214258D02*
X180488221Y-121248332D01*
X180543240Y-121410971D01*
X180610583Y-121527613D01*
X180690251Y-121598259D01*
M02*
