  0
SECTION
  2
HEADER
  9
$ANGBASE
  50
0.0
  9
$ANGDIR
  70
  1
  9
$MEASUREMENT
  70
0
  0
ENDSEC
  0
SECTION
  2
TABLES
  0
TABLE
  2
LTYPE
  70
1
  0
LTYPE
  2
CONTINUOUS
  70
0
  3
Solid line
  72
65
  73
0
  40
0.0
  0
ENDTAB
  0
TABLE
  2
STYLE
  70
4
  0
STYLE
  2
KICAD
  70
0
  40
0
  41
1
  42
1
  50
0
  71
0
  3
isocp.shx
  0
STYLE
  2
KICADB
  70
0
  40
0
  41
1
  42
1
  50
0
  71
0
  3
isocp.shx
  0
STYLE
  2
KICADI
  70
0
  40
0
  41
1
  42
1
  50
15
  71
0
  3
isocp.shx
  0
STYLE
  2
KICADBI
  70
0
  40
0
  41
1
  42
1
  50
15
  71
0
  3
isocp.shx
  0
ENDTAB
  0
TABLE
  2
LAYER
  70
30
  0
LAYER
  2
BLACK
  70
0
  62
7
  6
CONTINUOUS
  0
LAYER
  2
GRAY1
  70
0
  62
251
  6
CONTINUOUS
  0
LAYER
  2
GRAY2
  70
0
  62
8
  6
CONTINUOUS
  0
LAYER
  2
GRAY3
  70
0
  62
9
  6
CONTINUOUS
  0
LAYER
  2
WHITE
  70
0
  62
7
  6
CONTINUOUS
  0
LAYER
  2
LYELLOW
  70
0
  62
51
  6
CONTINUOUS
  0
LAYER
  2
BLUE1
  70
0
  62
178
  6
CONTINUOUS
  0
LAYER
  2
GREEN1
  70
0
  62
98
  6
CONTINUOUS
  0
LAYER
  2
CYAN1
  70
0
  62
138
  6
CONTINUOUS
  0
LAYER
  2
RED1
  70
0
  62
18
  6
CONTINUOUS
  0
LAYER
  2
MAGENTA1
  70
0
  62
228
  6
CONTINUOUS
  0
LAYER
  2
BROWN1
  70
0
  62
58
  6
CONTINUOUS
  0
LAYER
  2
BLUE2
  70
0
  62
5
  6
CONTINUOUS
  0
LAYER
  2
GREEN2
  70
0
  62
3
  6
CONTINUOUS
  0
LAYER
  2
CYAN2
  70
0
  62
4
  6
CONTINUOUS
  0
LAYER
  2
RED2
  70
0
  62
1
  6
CONTINUOUS
  0
LAYER
  2
MAGENTA2
  70
0
  62
6
  6
CONTINUOUS
  0
LAYER
  2
BROWN2
  70
0
  62
54
  6
CONTINUOUS
  0
LAYER
  2
BLUE3
  70
0
  62
171
  6
CONTINUOUS
  0
LAYER
  2
GREEN3
  70
0
  62
91
  6
CONTINUOUS
  0
LAYER
  2
CYAN3
  70
0
  62
131
  6
CONTINUOUS
  0
LAYER
  2
RED3
  70
0
  62
11
  6
CONTINUOUS
  0
LAYER
  2
MAGENTA3
  70
0
  62
221
  6
CONTINUOUS
  0
LAYER
  2
YELLOW3
  70
0
  62
2
  6
CONTINUOUS
  0
LAYER
  2
BLUE4
  70
0
  62
5
  6
CONTINUOUS
  0
LAYER
  2
GREEN4
  70
0
  62
3
  6
CONTINUOUS
  0
LAYER
  2
CYAN4
  70
0
  62
4
  6
CONTINUOUS
  0
LAYER
  2
RED4
  70
0
  62
1
  6
CONTINUOUS
  0
LAYER
  2
MAGENTA4
  70
0
  62
6
  6
CONTINUOUS
  0
LAYER
  2
YELLOW4
  70
0
  62
2
  6
CONTINUOUS
  0
ENDTAB
  0
ENDSEC
  0
SECTION
  2
ENTITIES
0
LINE
8
Black
10
167.209
20
-117.281
11
167.586
21
-117.499
0
LINE
8
Black
10
167.586
20
-117.499
11
167.866
21
-117.833
0
LINE
8
Black
10
167.866
20
-117.833
11
168.015
21
-118.242
0
LINE
8
Black
10
168.015
20
-118.242
11
168.015
21
-118.678
0
LINE
8
Black
10
168.015
20
-118.678
11
167.866
21
-119.087
0
LINE
8
Black
10
167.866
20
-119.087
11
167.586
21
-119.421
0
LINE
8
Black
10
167.586
20
-119.421
11
167.209
21
-119.639
0
LINE
8
Black
10
167.209
20
-119.639
11
166.78
21
-119.714
0
LINE
8
Black
10
166.78
20
-119.714
11
166.351
21
-119.639
0
LINE
8
Black
10
166.351
20
-119.639
11
166.1
21
-119.494
0
LINE
8
Black
10
166.1
20
-119.494
11
165.36
21
-120.234
0
LINE
8
Black
10
165.36
20
-120.234
11
165.36
21
-138.486
0
LINE
8
Black
10
165.36
20
-138.486
11
166.344
21
-139.47
0
LINE
8
Black
10
166.344
20
-139.47
11
186.999
21
-139.47
0
LINE
8
Black
10
186.999
20
-139.47
11
187.826
21
-138.642
0
LINE
8
Black
10
187.826
20
-138.642
11
187.826
21
-136.964
0
LINE
8
Black
10
187.826
20
-136.964
11
188.565
21
-136.964
0
LINE
8
Black
10
188.565
20
-136.964
11
188.565
21
-135.81
0
LINE
8
Black
10
188.565
20
-135.81
11
188.14
21
-135.81
0
LINE
8
Black
10
188.14
20
-135.81
11
188.14
21
-134.11
0
LINE
8
Black
10
188.14
20
-134.11
11
190.14
21
-134.11
0
LINE
8
Black
10
190.14
20
-134.11
11
190.14
21
-135.81
0
LINE
8
Black
10
190.14
20
-135.81
11
188.815
21
-135.81
0
LINE
8
Black
10
188.815
20
-135.81
11
188.815
21
-136.964
0
LINE
8
Black
10
188.815
20
-136.964
11
189.554
21
-136.964
0
LINE
8
Black
10
189.554
20
-136.964
11
189.554
21
-138.996
0
LINE
8
Black
10
189.554
20
-138.996
11
188.18
21
-138.996
0
LINE
8
Black
10
188.18
20
-138.996
11
187.279
21
-139.897
0
LINE
8
Black
10
187.279
20
-139.897
11
187.27
21
-139.903
0
LINE
8
Black
10
187.27
20
-139.903
11
187.263
21
-139.912
0
LINE
8
Black
10
187.263
20
-139.912
11
187.235
21
-139.928
0
LINE
8
Black
10
187.235
20
-139.928
11
187.208
21
-139.947
0
LINE
8
Black
10
187.208
20
-139.947
11
187.197
21
-139.949
0
LINE
8
Black
10
187.197
20
-139.949
11
187.188
21
-139.955
0
LINE
8
Black
10
187.188
20
-139.955
11
187.156
21
-139.961
0
LINE
8
Black
10
187.156
20
-139.961
11
187.124
21
-139.969
0
LINE
8
Black
10
187.124
20
-139.969
11
187.113
21
-139.968
0
LINE
8
Black
10
187.113
20
-139.968
11
187.102
21
-139.97
0
LINE
8
Black
10
187.102
20
-139.97
11
166.24
21
-139.97
0
LINE
8
Black
10
166.24
20
-139.97
11
166.229
21
-139.968
0
LINE
8
Black
10
166.229
20
-139.968
11
166.218
21
-139.969
0
LINE
8
Black
10
166.218
20
-139.969
11
166.187
21
-139.961
0
LINE
8
Black
10
166.187
20
-139.961
11
166.154
21
-139.955
0
LINE
8
Black
10
166.154
20
-139.955
11
166.145
21
-139.949
0
LINE
8
Black
10
166.145
20
-139.949
11
166.134
21
-139.947
0
LINE
8
Black
10
166.134
20
-139.947
11
166.108
21
-139.928
0
LINE
8
Black
10
166.108
20
-139.928
11
166.079
21
-139.912
0
LINE
8
Black
10
166.079
20
-139.912
11
166.072
21
-139.903
0
LINE
8
Black
10
166.072
20
-139.903
11
166.063
21
-139.897
0
LINE
8
Black
10
166.063
20
-139.897
11
164.933
21
-138.767
0
LINE
8
Black
10
164.933
20
-138.767
11
164.927
21
-138.758
0
LINE
8
Black
10
164.927
20
-138.758
11
164.918
21
-138.751
0
LINE
8
Black
10
164.918
20
-138.751
11
164.902
21
-138.722
0
LINE
8
Black
10
164.902
20
-138.722
11
164.883
21
-138.696
0
LINE
8
Black
10
164.883
20
-138.696
11
164.881
21
-138.685
0
LINE
8
Black
10
164.881
20
-138.685
11
164.875
21
-138.676
0
LINE
8
Black
10
164.875
20
-138.676
11
164.869
21
-138.643
0
LINE
8
Black
10
164.869
20
-138.643
11
164.861
21
-138.612
0
LINE
8
Black
10
164.861
20
-138.612
11
164.862
21
-138.601
0
LINE
8
Black
10
164.862
20
-138.601
11
164.86
21
-138.59
0
LINE
8
Black
10
164.86
20
-138.59
11
164.86
21
-120.13
0
LINE
8
Black
10
164.86
20
-120.13
11
164.862
21
-120.119
0
LINE
8
Black
10
164.862
20
-120.119
11
164.861
21
-120.108
0
LINE
8
Black
10
164.861
20
-120.108
11
164.869
21
-120.077
0
LINE
8
Black
10
164.869
20
-120.077
11
164.875
21
-120.044
0
LINE
8
Black
10
164.875
20
-120.044
11
164.881
21
-120.035
0
LINE
8
Black
10
164.881
20
-120.035
11
164.883
21
-120.024
0
LINE
8
Black
10
164.883
20
-120.024
11
164.902
21
-119.998
0
LINE
8
Black
10
164.902
20
-119.998
11
164.918
21
-119.969
0
LINE
8
Black
10
164.918
20
-119.969
11
164.927
21
-119.962
0
LINE
8
Black
10
164.927
20
-119.962
11
164.933
21
-119.953
0
LINE
8
Black
10
164.933
20
-119.953
11
165.742
21
-119.145
0
LINE
8
Black
10
165.742
20
-119.145
11
165.694
21
-119.087
0
LINE
8
Black
10
165.694
20
-119.087
11
165.545
21
-118.678
0
LINE
8
Black
10
165.545
20
-118.678
11
165.545
21
-118.242
0
LINE
8
Black
10
165.545
20
-118.242
11
165.694
21
-117.833
0
LINE
8
Black
10
165.694
20
-117.833
11
165.974
21
-117.499
0
LINE
8
Black
10
165.974
20
-117.499
11
166.351
21
-117.281
0
LINE
8
Black
10
166.351
20
-117.281
11
166.78
21
-117.206
0
LINE
8
Black
10
166.78
20
-117.206
11
167.209
21
-117.281
0
LINE
8
Black
10
182.794
20
-132.436
11
182.93
21
-132.514
0
LINE
8
Black
10
182.93
20
-132.514
11
183.031
21
-132.634
0
LINE
8
Black
10
183.031
20
-132.634
11
183.033
21
-132.638
0
LINE
8
Black
10
183.033
20
-132.638
11
183.052
21
-132.652
0
LINE
8
Black
10
183.052
20
-132.652
11
183.081
21
-132.668
0
LINE
8
Black
10
183.081
20
-132.668
11
183.088
21
-132.677
0
LINE
8
Black
10
183.088
20
-132.677
11
183.097
21
-132.683
0
LINE
8
Black
10
183.097
20
-132.683
11
183.461
21
-133.047
0
LINE
8
Black
10
183.461
20
-133.047
11
183.467
21
-133.056
0
LINE
8
Black
10
183.467
20
-133.056
11
183.476
21
-133.063
0
LINE
8
Black
10
183.476
20
-133.063
11
183.492
21
-133.092
0
LINE
8
Black
10
183.492
20
-133.092
11
183.511
21
-133.118
0
LINE
8
Black
10
183.511
20
-133.118
11
183.514
21
-133.129
0
LINE
8
Black
10
183.514
20
-133.129
11
183.519
21
-133.139
0
LINE
8
Black
10
183.519
20
-133.139
11
183.525
21
-133.171
0
LINE
8
Black
10
183.525
20
-133.171
11
183.533
21
-133.202
0
LINE
8
Black
10
183.533
20
-133.202
11
183.532
21
-133.213
0
LINE
8
Black
10
183.532
20
-133.213
11
183.534
21
-133.224
0
LINE
8
Black
10
183.534
20
-133.224
11
183.534
21
-136.286
0
LINE
8
Black
10
183.534
20
-136.286
11
183.532
21
-136.297
0
LINE
8
Black
10
183.532
20
-136.297
11
183.533
21
-136.308
0
LINE
8
Black
10
183.533
20
-136.308
11
183.525
21
-136.339
0
LINE
8
Black
10
183.525
20
-136.339
11
183.519
21
-136.371
0
LINE
8
Black
10
183.519
20
-136.371
11
183.514
21
-136.381
0
LINE
8
Black
10
183.514
20
-136.381
11
183.511
21
-136.392
0
LINE
8
Black
10
183.511
20
-136.392
11
183.492
21
-136.418
0
LINE
8
Black
10
183.492
20
-136.418
11
183.476
21
-136.447
0
LINE
8
Black
10
183.476
20
-136.447
11
183.467
21
-136.454
0
LINE
8
Black
10
183.467
20
-136.454
11
183.461
21
-136.463
0
LINE
8
Black
10
183.461
20
-136.463
11
183.283
21
-136.641
0
LINE
8
Black
10
183.283
20
-136.641
11
183.274
21
-136.647
0
LINE
8
Black
10
183.274
20
-136.647
11
183.267
21
-136.656
0
LINE
8
Black
10
183.267
20
-136.656
11
183.238
21
-136.672
0
LINE
8
Black
10
183.238
20
-136.672
11
183.212
21
-136.691
0
LINE
8
Black
10
183.212
20
-136.691
11
183.201
21
-136.693
0
LINE
8
Black
10
183.201
20
-136.693
11
183.192
21
-136.699
0
LINE
8
Black
10
183.192
20
-136.699
11
183.159
21
-136.705
0
LINE
8
Black
10
183.159
20
-136.705
11
183.128
21
-136.713
0
LINE
8
Black
10
183.128
20
-136.713
11
183.117
21
-136.712
0
LINE
8
Black
10
183.117
20
-136.712
11
183.106
21
-136.714
0
LINE
8
Black
10
183.106
20
-136.714
11
182.537
21
-136.714
0
LINE
8
Black
10
182.537
20
-136.714
11
181.823
21
-137.428
0
LINE
8
Black
10
181.823
20
-137.428
11
181.882
21
-137.528
0
LINE
8
Black
10
181.882
20
-137.528
11
181.934
21
-137.824
0
LINE
8
Black
10
181.934
20
-137.824
11
181.934
21
-138.136
0
LINE
8
Black
10
181.934
20
-138.136
11
181.882
21
-138.432
0
LINE
8
Black
10
181.882
20
-138.432
11
181.732
21
-138.691
0
LINE
8
Black
10
181.732
20
-138.691
11
181.502
21
-138.884
0
LINE
8
Black
10
181.502
20
-138.884
11
181.22
21
-138.987
0
LINE
8
Black
10
181.22
20
-138.987
11
180.92
21
-138.987
0
LINE
8
Black
10
180.92
20
-138.987
11
180.638
21
-138.884
0
LINE
8
Black
10
180.638
20
-138.884
11
180.408
21
-138.691
0
LINE
8
Black
10
180.408
20
-138.691
11
180.258
21
-138.432
0
LINE
8
Black
10
180.258
20
-138.432
11
180.206
21
-138.136
0
LINE
8
Black
10
180.206
20
-138.136
11
180.206
21
-137.824
0
LINE
8
Black
10
180.206
20
-137.824
11
180.258
21
-137.528
0
LINE
8
Black
10
180.258
20
-137.528
11
180.408
21
-137.269
0
LINE
8
Black
10
180.408
20
-137.269
11
180.638
21
-137.076
0
LINE
8
Black
10
180.638
20
-137.076
11
180.92
21
-136.973
0
LINE
8
Black
10
180.92
20
-136.973
11
181.22
21
-136.973
0
LINE
8
Black
10
181.22
20
-136.973
11
181.477
21
-137.067
0
LINE
8
Black
10
181.477
20
-137.067
11
182.257
21
-136.287
0
LINE
8
Black
10
182.257
20
-136.287
11
182.266
21
-136.281
0
LINE
8
Black
10
182.266
20
-136.281
11
182.273
21
-136.272
0
LINE
8
Black
10
182.273
20
-136.272
11
182.301
21
-136.256
0
LINE
8
Black
10
182.301
20
-136.256
11
182.328
21
-136.237
0
LINE
8
Black
10
182.328
20
-136.237
11
182.339
21
-136.235
0
LINE
8
Black
10
182.339
20
-136.235
11
182.348
21
-136.229
0
LINE
8
Black
10
182.348
20
-136.229
11
182.38
21
-136.223
0
LINE
8
Black
10
182.38
20
-136.223
11
182.412
21
-136.215
0
LINE
8
Black
10
182.412
20
-136.215
11
182.423
21
-136.216
0
LINE
8
Black
10
182.423
20
-136.216
11
182.434
21
-136.214
0
LINE
8
Black
10
182.434
20
-136.214
11
183.002
21
-136.214
0
LINE
8
Black
10
183.002
20
-136.214
11
183.034
21
-136.182
0
LINE
8
Black
10
183.034
20
-136.182
11
183.034
21
-133.328
0
LINE
8
Black
10
183.034
20
-133.328
11
182.919
21
-133.213
0
LINE
8
Black
10
182.919
20
-133.213
11
182.794
21
-133.284
0
LINE
8
Black
10
182.794
20
-133.284
11
182.64
21
-133.312
0
LINE
8
Black
10
182.64
20
-133.312
11
182.486
21
-133.284
0
LINE
8
Black
10
182.486
20
-133.284
11
182.35
21
-133.206
0
LINE
8
Black
10
182.35
20
-133.206
11
182.249
21
-133.086
0
LINE
8
Black
10
182.249
20
-133.086
11
182.195
21
-132.938
0
LINE
8
Black
10
182.195
20
-132.938
11
182.195
21
-132.782
0
LINE
8
Black
10
182.195
20
-132.782
11
182.249
21
-132.634
0
LINE
8
Black
10
182.249
20
-132.634
11
182.35
21
-132.514
0
LINE
8
Black
10
182.35
20
-132.514
11
182.486
21
-132.436
0
LINE
8
Black
10
182.486
20
-132.436
11
182.64
21
-132.408
0
LINE
8
Black
10
182.64
20
-132.408
11
182.794
21
-132.436
0
LINE
8
Black
10
184.042
20
-137.076
11
184.272
21
-137.269
0
LINE
8
Black
10
184.272
20
-137.269
11
184.422
21
-137.528
0
LINE
8
Black
10
184.422
20
-137.528
11
184.474
21
-137.824
0
LINE
8
Black
10
184.474
20
-137.824
11
184.474
21
-138.136
0
LINE
8
Black
10
184.474
20
-138.136
11
184.422
21
-138.432
0
LINE
8
Black
10
184.422
20
-138.432
11
184.272
21
-138.691
0
LINE
8
Black
10
184.272
20
-138.691
11
184.042
21
-138.884
0
LINE
8
Black
10
184.042
20
-138.884
11
183.76
21
-138.987
0
LINE
8
Black
10
183.76
20
-138.987
11
183.46
21
-138.987
0
LINE
8
Black
10
183.46
20
-138.987
11
183.178
21
-138.884
0
LINE
8
Black
10
183.178
20
-138.884
11
182.948
21
-138.691
0
LINE
8
Black
10
182.948
20
-138.691
11
182.798
21
-138.432
0
LINE
8
Black
10
182.798
20
-138.432
11
182.746
21
-138.136
0
LINE
8
Black
10
182.746
20
-138.136
11
182.746
21
-137.824
0
LINE
8
Black
10
182.746
20
-137.824
11
182.798
21
-137.528
0
LINE
8
Black
10
182.798
20
-137.528
11
182.948
21
-137.269
0
LINE
8
Black
10
182.948
20
-137.269
11
183.178
21
-137.076
0
LINE
8
Black
10
183.178
20
-137.076
11
183.46
21
-136.973
0
LINE
8
Black
10
183.46
20
-136.973
11
183.76
21
-136.973
0
LINE
8
Black
10
183.76
20
-136.973
11
184.042
21
-137.076
0
LINE
8
Black
10
187.415
20
-133.38
11
187.165
21
-133.38
0
LINE
8
Black
10
187.165
20
-133.38
11
187.165
21
-137.09
0
LINE
8
Black
10
187.165
20
-137.09
11
187.164
21
-137.095
0
LINE
8
Black
10
187.164
20
-137.095
11
187.165
21
-137.101
0
LINE
8
Black
10
187.165
20
-137.101
11
187.16
21
-137.117
0
LINE
8
Black
10
187.16
20
-137.117
11
187.157
21
-137.133
0
LINE
8
Black
10
187.157
20
-137.133
11
187.155
21
-137.138
0
LINE
8
Black
10
187.155
20
-137.138
11
187.153
21
-137.143
0
LINE
8
Black
10
187.153
20
-137.143
11
187.144
21
-137.156
0
LINE
8
Black
10
187.144
20
-137.156
11
187.136
21
-137.17
0
LINE
8
Black
10
187.136
20
-137.17
11
187.132
21
-137.174
0
LINE
8
Black
10
187.132
20
-137.174
11
187.128
21
-137.178
0
LINE
8
Black
10
187.128
20
-137.178
11
186.895
21
-137.412
0
LINE
8
Black
10
186.895
20
-137.412
11
186.962
21
-137.528
0
LINE
8
Black
10
186.962
20
-137.528
11
187.014
21
-137.824
0
LINE
8
Black
10
187.014
20
-137.824
11
187.014
21
-138.136
0
LINE
8
Black
10
187.014
20
-138.136
11
186.962
21
-138.432
0
LINE
8
Black
10
186.962
20
-138.432
11
186.812
21
-138.691
0
LINE
8
Black
10
186.812
20
-138.691
11
186.582
21
-138.884
0
LINE
8
Black
10
186.582
20
-138.884
11
186.3
21
-138.987
0
LINE
8
Black
10
186.3
20
-138.987
11
186
21
-138.987
0
LINE
8
Black
10
186
20
-138.987
11
185.718
21
-138.884
0
LINE
8
Black
10
185.718
20
-138.884
11
185.488
21
-138.691
0
LINE
8
Black
10
185.488
20
-138.691
11
185.338
21
-138.432
0
LINE
8
Black
10
185.338
20
-138.432
11
185.286
21
-138.136
0
LINE
8
Black
10
185.286
20
-138.136
11
185.286
21
-137.824
0
LINE
8
Black
10
185.286
20
-137.824
11
185.338
21
-137.528
0
LINE
8
Black
10
185.338
20
-137.528
11
185.488
21
-137.269
0
LINE
8
Black
10
185.488
20
-137.269
11
185.718
21
-137.076
0
LINE
8
Black
10
185.718
20
-137.076
11
186
21
-136.973
0
LINE
8
Black
10
186
20
-136.973
11
186.3
21
-136.973
0
LINE
8
Black
10
186.3
20
-136.973
11
186.582
21
-137.076
0
LINE
8
Black
10
186.582
20
-137.076
11
186.743
21
-137.211
0
LINE
8
Black
10
186.743
20
-137.211
11
186.915
21
-137.038
0
LINE
8
Black
10
186.915
20
-137.038
11
186.915
21
-133.38
0
LINE
8
Black
10
186.915
20
-133.38
11
186.665
21
-133.38
0
LINE
8
Black
10
186.665
20
-133.38
11
186.665
21
-133.235
0
LINE
8
Black
10
186.665
20
-133.235
11
185.972
21
-133.235
0
LINE
8
Black
10
185.972
20
-133.235
11
185.972
21
-133.326
0
LINE
8
Black
10
185.972
20
-133.326
11
185.265
21
-133.326
0
LINE
8
Black
10
185.265
20
-133.326
11
185.265
21
-134.11
0
LINE
8
Black
10
185.265
20
-134.11
11
186.14
21
-134.11
0
LINE
8
Black
10
186.14
20
-134.11
11
186.14
21
-135.81
0
LINE
8
Black
10
186.14
20
-135.81
11
184.14
21
-135.81
0
LINE
8
Black
10
184.14
20
-135.81
11
184.14
21
-134.11
0
LINE
8
Black
10
184.14
20
-134.11
11
185.015
21
-134.11
0
LINE
8
Black
10
185.015
20
-134.11
11
185.015
21
-133.326
0
LINE
8
Black
10
185.015
20
-133.326
11
184.576
21
-133.326
0
LINE
8
Black
10
184.576
20
-133.326
11
184.576
21
-132.894
0
LINE
8
Black
10
184.576
20
-132.894
11
185.972
21
-132.894
0
LINE
8
Black
10
185.972
20
-132.894
11
185.972
21
-132.985
0
LINE
8
Black
10
185.972
20
-132.985
11
186.658
21
-132.985
0
LINE
8
Black
10
186.658
20
-132.985
11
186.665
21
-132.978
0
LINE
8
Black
10
186.665
20
-132.978
11
186.665
21
-132.18
0
LINE
8
Black
10
186.665
20
-132.18
11
187.415
21
-132.18
0
LINE
8
Black
10
187.415
20
-132.18
11
187.415
21
-133.38
0
LINE
8
Black
10
178.53
20
-135.79
11
177.245
21
-135.79
0
LINE
8
Black
10
177.245
20
-135.79
11
177.245
21
-136.965
0
LINE
8
Black
10
177.245
20
-136.965
11
177.87
21
-136.965
0
LINE
8
Black
10
177.87
20
-136.965
11
177.87
21
-138.215
0
LINE
8
Black
10
177.87
20
-138.215
11
176.37
21
-138.215
0
LINE
8
Black
10
176.37
20
-138.215
11
176.37
21
-136.965
0
LINE
8
Black
10
176.37
20
-136.965
11
176.995
21
-136.965
0
LINE
8
Black
10
176.995
20
-136.965
11
176.995
21
-135.79
0
LINE
8
Black
10
176.995
20
-135.79
11
176.53
21
-135.79
0
LINE
8
Black
10
176.53
20
-135.79
11
176.53
21
-134.09
0
LINE
8
Black
10
176.53
20
-134.09
11
178.53
21
-134.09
0
LINE
8
Black
10
178.53
20
-134.09
11
178.53
21
-135.79
0
LINE
8
Black
10
175.37
20
-138.215
11
173.87
21
-138.215
0
LINE
8
Black
10
173.87
20
-138.215
11
173.87
21
-136.965
0
LINE
8
Black
10
173.87
20
-136.965
11
175.37
21
-136.965
0
LINE
8
Black
10
175.37
20
-136.965
11
175.37
21
-138.215
0
LINE
8
Black
10
172.153
20
-135.846
11
171.82
21
-136.038
0
LINE
8
Black
10
171.82
20
-136.038
11
171.82
21
-136.437
0
LINE
8
Black
10
171.82
20
-136.437
11
171.87
21
-136.428
0
LINE
8
Black
10
171.87
20
-136.428
11
172.024
21
-136.456
0
LINE
8
Black
10
172.024
20
-136.456
11
172.16
21
-136.534
0
LINE
8
Black
10
172.16
20
-136.534
11
172.261
21
-136.654
0
LINE
8
Black
10
172.261
20
-136.654
11
172.315
21
-136.802
0
LINE
8
Black
10
172.315
20
-136.802
11
172.315
21
-136.958
0
LINE
8
Black
10
172.315
20
-136.958
11
172.261
21
-137.106
0
LINE
8
Black
10
172.261
20
-137.106
11
172.16
21
-137.226
0
LINE
8
Black
10
172.16
20
-137.226
11
172.024
21
-137.304
0
LINE
8
Black
10
172.024
20
-137.304
11
171.87
21
-137.332
0
LINE
8
Black
10
171.87
20
-137.332
11
171.716
21
-137.304
0
LINE
8
Black
10
171.716
20
-137.304
11
171.58
21
-137.226
0
LINE
8
Black
10
171.58
20
-137.226
11
171.479
21
-137.106
0
LINE
8
Black
10
171.479
20
-137.106
11
171.425
21
-136.958
0
LINE
8
Black
10
171.425
20
-136.958
11
171.425
21
-136.802
0
LINE
8
Black
10
171.425
20
-136.802
11
171.429
21
-136.792
0
LINE
8
Black
10
171.429
20
-136.792
11
171.393
21
-136.757
0
LINE
8
Black
10
171.393
20
-136.757
11
171.387
21
-136.748
0
LINE
8
Black
10
171.387
20
-136.748
11
171.379
21
-136.741
0
LINE
8
Black
10
171.379
20
-136.741
11
171.362
21
-136.713
0
LINE
8
Black
10
171.362
20
-136.713
11
171.344
21
-136.686
0
LINE
8
Black
10
171.344
20
-136.686
11
171.341
21
-136.675
0
LINE
8
Black
10
171.341
20
-136.675
11
171.335
21
-136.666
0
LINE
8
Black
10
171.335
20
-136.666
11
171.33
21
-136.634
0
LINE
8
Black
10
171.33
20
-136.634
11
171.321
21
-136.602
0
LINE
8
Black
10
171.321
20
-136.602
11
171.322
21
-136.591
0
LINE
8
Black
10
171.322
20
-136.591
11
171.32
21
-136.58
0
LINE
8
Black
10
171.32
20
-136.58
11
171.32
21
-136.327
0
LINE
8
Black
10
171.32
20
-136.327
11
171.287
21
-136.346
0
LINE
8
Black
10
171.287
20
-136.346
11
170.987
21
-135.827
0
LINE
8
Black
10
170.987
20
-135.827
11
171.854
21
-135.326
0
LINE
8
Black
10
171.854
20
-135.326
11
172.153
21
-135.846
0
LINE
8
Black
10
178.27
20
-131.533
11
178.426
21
-131.69
0
LINE
8
Black
10
178.426
20
-131.69
11
178.987
21
-131.69
0
LINE
8
Black
10
178.987
20
-131.69
11
178.987
21
-131.599
0
LINE
8
Black
10
178.987
20
-131.599
11
180.385
21
-131.599
0
LINE
8
Black
10
180.385
20
-131.599
11
180.385
21
-131.69
0
LINE
8
Black
10
180.385
20
-131.69
11
180.635
21
-131.69
0
LINE
8
Black
10
180.635
20
-131.69
11
180.64
21
-131.691
0
LINE
8
Black
10
180.64
20
-131.691
11
180.645
21
-131.69
0
LINE
8
Black
10
180.645
20
-131.69
11
180.661
21
-131.694
0
LINE
8
Black
10
180.661
20
-131.694
11
180.677
21
-131.697
0
LINE
8
Black
10
180.677
20
-131.697
11
180.682
21
-131.7
0
LINE
8
Black
10
180.682
20
-131.7
11
180.687
21
-131.701
0
LINE
8
Black
10
180.687
20
-131.701
11
180.701
21
-131.711
0
LINE
8
Black
10
180.701
20
-131.711
11
180.715
21
-131.719
0
LINE
8
Black
10
180.715
20
-131.719
11
180.718
21
-131.723
0
LINE
8
Black
10
180.718
20
-131.723
11
180.723
21
-131.726
0
LINE
8
Black
10
180.723
20
-131.726
11
181.618
21
-132.622
0
LINE
8
Black
10
181.618
20
-132.622
11
181.622
21
-132.626
0
LINE
8
Black
10
181.622
20
-132.626
11
181.626
21
-132.63
0
LINE
8
Black
10
181.626
20
-132.63
11
181.634
21
-132.644
0
LINE
8
Black
10
181.634
20
-132.644
11
181.643
21
-132.657
0
LINE
8
Black
10
181.643
20
-132.657
11
181.645
21
-132.663
0
LINE
8
Black
10
181.645
20
-132.663
11
181.647
21
-132.667
0
LINE
8
Black
10
181.647
20
-132.667
11
181.65
21
-132.683
0
LINE
8
Black
10
181.65
20
-132.683
11
181.655
21
-132.699
0
LINE
8
Black
10
181.655
20
-132.699
11
181.654
21
-132.705
0
LINE
8
Black
10
181.654
20
-132.705
11
181.655
21
-132.71
0
LINE
8
Black
10
181.655
20
-132.71
11
181.655
21
-134.09
0
LINE
8
Black
10
181.655
20
-134.09
11
182.53
21
-134.09
0
LINE
8
Black
10
182.53
20
-134.09
11
182.53
21
-135.79
0
LINE
8
Black
10
182.53
20
-135.79
11
180.53
21
-135.79
0
LINE
8
Black
10
180.53
20
-135.79
11
180.53
21
-134.09
0
LINE
8
Black
10
180.53
20
-134.09
11
181.405
21
-134.09
0
LINE
8
Black
10
181.405
20
-134.09
11
181.405
21
-132.762
0
LINE
8
Black
10
181.405
20
-132.762
11
180.583
21
-131.94
0
LINE
8
Black
10
180.583
20
-131.94
11
180.385
21
-131.94
0
LINE
8
Black
10
180.385
20
-131.94
11
180.385
21
-132.03
0
LINE
8
Black
10
180.385
20
-132.03
11
178.987
21
-132.03
0
LINE
8
Black
10
178.987
20
-132.03
11
178.987
21
-131.94
0
LINE
8
Black
10
178.987
20
-131.94
11
178.375
21
-131.94
0
LINE
8
Black
10
178.375
20
-131.94
11
178.369
21
-131.939
0
LINE
8
Black
10
178.369
20
-131.939
11
178.364
21
-131.939
0
LINE
8
Black
10
178.364
20
-131.939
11
178.348
21
-131.935
0
LINE
8
Black
10
178.348
20
-131.935
11
178.332
21
-131.932
0
LINE
8
Black
10
178.332
20
-131.932
11
178.327
21
-131.929
0
LINE
8
Black
10
178.327
20
-131.929
11
178.322
21
-131.928
0
LINE
8
Black
10
178.322
20
-131.928
11
178.308
21
-131.919
0
LINE
8
Black
10
178.308
20
-131.919
11
178.294
21
-131.91
0
LINE
8
Black
10
178.294
20
-131.91
11
178.291
21
-131.906
0
LINE
8
Black
10
178.291
20
-131.906
11
178.286
21
-131.903
0
LINE
8
Black
10
178.286
20
-131.903
11
178.243
21
-131.86
0
LINE
8
Black
10
178.243
20
-131.86
11
176.57
21
-131.86
0
LINE
8
Black
10
176.57
20
-131.86
11
176.57
21
-129.86
0
LINE
8
Black
10
176.57
20
-129.86
11
178.27
21
-129.86
0
LINE
8
Black
10
178.27
20
-129.86
11
178.27
21
-131.533
0
LINE
8
Black
10
171.6
20
-133.36
11
171.17
21
-133.36
0
LINE
8
Black
10
171.17
20
-133.36
11
171.17
21
-134.22
0
LINE
8
Black
10
171.17
20
-134.22
11
171.203
21
-134.2
0
LINE
8
Black
10
171.203
20
-134.2
11
171.503
21
-134.719
0
LINE
8
Black
10
171.503
20
-134.719
11
170.637
21
-135.22
0
LINE
8
Black
10
170.637
20
-135.22
11
170.487
21
-134.96
0
LINE
8
Black
10
170.487
20
-134.96
11
168.239
21
-134.96
0
LINE
8
Black
10
168.239
20
-134.96
11
168.228
21
-134.958
0
LINE
8
Black
10
168.228
20
-134.958
11
168.217
21
-134.959
0
LINE
8
Black
10
168.217
20
-134.959
11
168.186
21
-134.951
0
LINE
8
Black
10
168.186
20
-134.951
11
168.153
21
-134.945
0
LINE
8
Black
10
168.153
20
-134.945
11
168.144
21
-134.939
0
LINE
8
Black
10
168.144
20
-134.939
11
168.133
21
-134.937
0
LINE
8
Black
10
168.133
20
-134.937
11
168.106
21
-134.918
0
LINE
8
Black
10
168.106
20
-134.918
11
168.078
21
-134.902
0
LINE
8
Black
10
168.078
20
-134.902
11
168.071
21
-134.893
0
LINE
8
Black
10
168.071
20
-134.893
11
168.062
21
-134.887
0
LINE
8
Black
10
168.062
20
-134.887
11
167.616
21
-134.44
0
LINE
8
Black
10
167.616
20
-134.44
11
165.868
21
-134.44
0
LINE
8
Black
10
165.868
20
-134.44
11
165.868
21
-132.04
0
LINE
8
Black
10
165.868
20
-132.04
11
167.669
21
-132.04
0
LINE
8
Black
10
167.669
20
-132.04
11
167.669
21
-132.265
0
LINE
8
Black
10
167.669
20
-132.265
11
167.676
21
-132.277
0
LINE
8
Black
10
167.676
20
-132.277
11
167.684
21
-132.32
0
LINE
8
Black
10
167.684
20
-132.32
11
167.684
21
-132.399
0
LINE
8
Black
10
167.684
20
-132.399
11
167.676
21
-132.442
0
LINE
8
Black
10
167.676
20
-132.442
11
167.669
21
-132.454
0
LINE
8
Black
10
167.669
20
-132.454
11
167.669
21
-133.787
0
LINE
8
Black
10
167.669
20
-133.787
11
168.342
21
-134.46
0
LINE
8
Black
10
168.342
20
-134.46
11
170.67
21
-134.46
0
LINE
8
Black
10
170.67
20
-134.46
11
170.67
21
-133.36
0
LINE
8
Black
10
170.67
20
-133.36
11
169.9
21
-133.36
0
LINE
8
Black
10
169.9
20
-133.36
11
169.9
21
-131.36
0
LINE
8
Black
10
169.9
20
-131.36
11
171.6
21
-131.36
0
LINE
8
Black
10
171.6
20
-131.36
11
171.6
21
-133.36
0
LINE
8
Black
10
175.76
20
-132.323
11
175.787
21
-132.35
0
LINE
8
Black
10
175.787
20
-132.35
11
178.987
21
-132.35
0
LINE
8
Black
10
178.987
20
-132.35
11
178.987
21
-132.259
0
LINE
8
Black
10
178.987
20
-132.259
11
180.385
21
-132.259
0
LINE
8
Black
10
180.385
20
-132.259
11
180.385
21
-132.691
0
LINE
8
Black
10
180.385
20
-132.691
11
178.987
21
-132.691
0
LINE
8
Black
10
178.987
20
-132.691
11
178.987
21
-132.6
0
LINE
8
Black
10
178.987
20
-132.6
11
175.76
21
-132.6
0
LINE
8
Black
10
175.76
20
-132.6
11
175.76
21
-133.19
0
LINE
8
Black
10
175.76
20
-133.19
11
174.264
21
-133.19
0
LINE
8
Black
10
174.264
20
-133.19
11
173.345
21
-134.109
0
LINE
8
Black
10
173.345
20
-134.109
11
173.474
21
-134.333
0
LINE
8
Black
10
173.474
20
-134.333
11
172.607
21
-134.833
0
LINE
8
Black
10
172.607
20
-134.833
11
172.307
21
-134.314
0
LINE
8
Black
10
172.307
20
-134.314
11
172.663
21
-134.109
0
LINE
8
Black
10
172.663
20
-134.109
11
172.664
21
-134.104
0
LINE
8
Black
10
172.664
20
-134.104
11
172.683
21
-134.077
0
LINE
8
Black
10
172.683
20
-134.077
11
172.699
21
-134.049
0
LINE
8
Black
10
172.699
20
-134.049
11
172.707
21
-134.042
0
LINE
8
Black
10
172.707
20
-134.042
11
172.714
21
-134.033
0
LINE
8
Black
10
172.714
20
-134.033
11
174.06
21
-132.686
0
LINE
8
Black
10
174.06
20
-132.686
11
174.06
21
-131.19
0
LINE
8
Black
10
174.06
20
-131.19
11
175.76
21
-131.19
0
LINE
8
Black
10
175.76
20
-131.19
11
175.76
21
-132.323
0
LINE
8
Black
10
180.385
20
-133.326
11
179.886
21
-133.326
0
LINE
8
Black
10
179.886
20
-133.326
11
179.886
21
-133.609
0
LINE
8
Black
10
179.886
20
-133.609
11
179.98
21
-133.664
0
LINE
8
Black
10
179.98
20
-133.664
11
180.081
21
-133.784
0
LINE
8
Black
10
180.081
20
-133.784
11
180.135
21
-133.932
0
LINE
8
Black
10
180.135
20
-133.932
11
180.135
21
-134.088
0
LINE
8
Black
10
180.135
20
-134.088
11
180.081
21
-134.236
0
LINE
8
Black
10
180.081
20
-134.236
11
179.98
21
-134.356
0
LINE
8
Black
10
179.98
20
-134.356
11
179.844
21
-134.434
0
LINE
8
Black
10
179.844
20
-134.434
11
179.69
21
-134.462
0
LINE
8
Black
10
179.69
20
-134.462
11
179.536
21
-134.434
0
LINE
8
Black
10
179.536
20
-134.434
11
179.4
21
-134.356
0
LINE
8
Black
10
179.4
20
-134.356
11
179.299
21
-134.236
0
LINE
8
Black
10
179.299
20
-134.236
11
179.245
21
-134.088
0
LINE
8
Black
10
179.245
20
-134.088
11
179.245
21
-133.932
0
LINE
8
Black
10
179.245
20
-133.932
11
179.299
21
-133.784
0
LINE
8
Black
10
179.299
20
-133.784
11
179.4
21
-133.664
0
LINE
8
Black
10
179.4
20
-133.664
11
179.486
21
-133.614
0
LINE
8
Black
10
179.486
20
-133.614
11
179.486
21
-133.326
0
LINE
8
Black
10
179.486
20
-133.326
11
178.987
21
-133.326
0
LINE
8
Black
10
178.987
20
-133.326
11
178.987
21
-132.894
0
LINE
8
Black
10
178.987
20
-132.894
11
180.385
21
-132.894
0
LINE
8
Black
10
180.385
20
-132.894
11
180.385
21
-133.326
0
LINE
8
Black
10
178.27
20
-127.683
11
178.908
21
-128.322
0
LINE
8
Black
10
178.908
20
-128.322
11
178.912
21
-128.326
0
LINE
8
Black
10
178.912
20
-128.326
11
178.916
21
-128.33
0
LINE
8
Black
10
178.916
20
-128.33
11
178.924
21
-128.344
0
LINE
8
Black
10
178.924
20
-128.344
11
178.933
21
-128.357
0
LINE
8
Black
10
178.933
20
-128.357
11
178.935
21
-128.362
0
LINE
8
Black
10
178.935
20
-128.362
11
178.937
21
-128.367
0
LINE
8
Black
10
178.937
20
-128.367
11
178.94
21
-128.383
0
LINE
8
Black
10
178.94
20
-128.383
11
178.945
21
-128.399
0
LINE
8
Black
10
178.945
20
-128.399
11
178.944
21
-128.405
0
LINE
8
Black
10
178.944
20
-128.405
11
178.945
21
-128.41
0
LINE
8
Black
10
178.945
20
-128.41
11
178.945
21
-130.608
0
LINE
8
Black
10
178.945
20
-130.608
11
179.3
21
-130.964
0
LINE
8
Black
10
179.3
20
-130.964
11
180.385
21
-130.964
0
LINE
8
Black
10
180.385
20
-130.964
11
180.385
21
-131.055
0
LINE
8
Black
10
180.385
20
-131.055
11
182.24
21
-131.055
0
LINE
8
Black
10
182.24
20
-131.055
11
182.245
21
-131.056
0
LINE
8
Black
10
182.245
20
-131.056
11
182.25
21
-131.055
0
LINE
8
Black
10
182.25
20
-131.055
11
182.266
21
-131.059
0
LINE
8
Black
10
182.266
20
-131.059
11
182.282
21
-131.062
0
LINE
8
Black
10
182.282
20
-131.062
11
182.287
21
-131.065
0
LINE
8
Black
10
182.287
20
-131.065
11
182.292
21
-131.066
0
LINE
8
Black
10
182.292
20
-131.066
11
182.306
21
-131.076
0
LINE
8
Black
10
182.306
20
-131.076
11
182.32
21
-131.084
0
LINE
8
Black
10
182.32
20
-131.084
11
182.323
21
-131.088
0
LINE
8
Black
10
182.323
20
-131.088
11
182.328
21
-131.091
0
LINE
8
Black
10
182.328
20
-131.091
11
183.574
21
-132.337
0
LINE
8
Black
10
183.574
20
-132.337
11
184.576
21
-132.337
0
LINE
8
Black
10
184.576
20
-132.337
11
184.576
21
-132.246
0
LINE
8
Black
10
184.576
20
-132.246
11
185.972
21
-132.246
0
LINE
8
Black
10
185.972
20
-132.246
11
185.972
21
-132.678
0
LINE
8
Black
10
185.972
20
-132.678
11
184.576
21
-132.678
0
LINE
8
Black
10
184.576
20
-132.678
11
184.576
21
-132.587
0
LINE
8
Black
10
184.576
20
-132.587
11
183.522
21
-132.587
0
LINE
8
Black
10
183.522
20
-132.587
11
183.517
21
-132.586
0
LINE
8
Black
10
183.517
20
-132.586
11
183.511
21
-132.587
0
LINE
8
Black
10
183.511
20
-132.587
11
183.496
21
-132.583
0
LINE
8
Black
10
183.496
20
-132.583
11
183.48
21
-132.58
0
LINE
8
Black
10
183.48
20
-132.58
11
183.475
21
-132.577
0
LINE
8
Black
10
183.475
20
-132.577
11
183.469
21
-132.576
0
LINE
8
Black
10
183.469
20
-132.576
11
183.456
21
-132.566
0
LINE
8
Black
10
183.456
20
-132.566
11
183.442
21
-132.558
0
LINE
8
Black
10
183.442
20
-132.558
11
183.438
21
-132.554
0
LINE
8
Black
10
183.438
20
-132.554
11
183.434
21
-132.551
0
LINE
8
Black
10
183.434
20
-132.551
11
182.188
21
-131.305
0
LINE
8
Black
10
182.188
20
-131.305
11
180.385
21
-131.305
0
LINE
8
Black
10
180.385
20
-131.305
11
180.385
21
-131.395
0
LINE
8
Black
10
180.385
20
-131.395
11
178.987
21
-131.395
0
LINE
8
Black
10
178.987
20
-131.395
11
178.987
21
-131.004
0
LINE
8
Black
10
178.987
20
-131.004
11
178.732
21
-130.748
0
LINE
8
Black
10
178.732
20
-130.748
11
178.728
21
-130.744
0
LINE
8
Black
10
178.728
20
-130.744
11
178.724
21
-130.74
0
LINE
8
Black
10
178.724
20
-130.74
11
178.716
21
-130.726
0
LINE
8
Black
10
178.716
20
-130.726
11
178.707
21
-130.713
0
LINE
8
Black
10
178.707
20
-130.713
11
178.705
21
-130.708
0
LINE
8
Black
10
178.705
20
-130.708
11
178.703
21
-130.703
0
LINE
8
Black
10
178.703
20
-130.703
11
178.7
21
-130.687
0
LINE
8
Black
10
178.7
20
-130.687
11
178.695
21
-130.671
0
LINE
8
Black
10
178.695
20
-130.671
11
178.696
21
-130.665
0
LINE
8
Black
10
178.696
20
-130.665
11
178.695
21
-130.66
0
LINE
8
Black
10
178.695
20
-130.66
11
178.695
21
-128.462
0
LINE
8
Black
10
178.695
20
-128.462
11
178.093
21
-127.86
0
LINE
8
Black
10
178.093
20
-127.86
11
176.57
21
-127.86
0
LINE
8
Black
10
176.57
20
-127.86
11
176.57
21
-125.86
0
LINE
8
Black
10
176.57
20
-125.86
11
178.27
21
-125.86
0
LINE
8
Black
10
178.27
20
-125.86
11
178.27
21
-127.683
0
LINE
8
Black
10
187.138
20
-129.424
11
187.217
21
-129.503
0
LINE
8
Black
10
187.217
20
-129.503
11
187.223
21
-129.512
0
LINE
8
Black
10
187.223
20
-129.512
11
187.232
21
-129.519
0
LINE
8
Black
10
187.232
20
-129.519
11
187.248
21
-129.548
0
LINE
8
Black
10
187.248
20
-129.548
11
187.267
21
-129.574
0
LINE
8
Black
10
187.267
20
-129.574
11
187.269
21
-129.585
0
LINE
8
Black
10
187.269
20
-129.585
11
187.275
21
-129.594
0
LINE
8
Black
10
187.275
20
-129.594
11
187.281
21
-129.627
0
LINE
8
Black
10
187.281
20
-129.627
11
187.289
21
-129.658
0
LINE
8
Black
10
187.289
20
-129.658
11
187.288
21
-129.669
0
LINE
8
Black
10
187.288
20
-129.669
11
187.29
21
-129.68
0
LINE
8
Black
10
187.29
20
-129.68
11
187.29
21
-130.28
0
LINE
8
Black
10
187.29
20
-130.28
11
187.415
21
-130.28
0
LINE
8
Black
10
187.415
20
-130.28
11
187.415
21
-130.63
0
LINE
8
Black
10
187.415
20
-130.63
11
188.27
21
-130.63
0
LINE
8
Black
10
188.27
20
-130.63
11
188.27
21
-130.46
0
LINE
8
Black
10
188.27
20
-130.46
11
189.97
21
-130.46
0
LINE
8
Black
10
189.97
20
-130.46
11
189.97
21
-132.46
0
LINE
8
Black
10
189.97
20
-132.46
11
188.27
21
-132.46
0
LINE
8
Black
10
188.27
20
-132.46
11
188.27
21
-131.13
0
LINE
8
Black
10
188.27
20
-131.13
11
187.415
21
-131.13
0
LINE
8
Black
10
187.415
20
-131.13
11
187.415
21
-131.48
0
LINE
8
Black
10
187.415
20
-131.48
11
186.943
21
-131.48
0
LINE
8
Black
10
186.943
20
-131.48
11
186.471
21
-131.951
0
LINE
8
Black
10
186.471
20
-131.951
11
186.464
21
-131.956
0
LINE
8
Black
10
186.464
20
-131.956
11
186.459
21
-131.963
0
LINE
8
Black
10
186.459
20
-131.963
11
186.436
21
-131.976
0
LINE
8
Black
10
186.436
20
-131.976
11
186.415
21
-131.991
0
LINE
8
Black
10
186.415
20
-131.991
11
186.406
21
-131.994
0
LINE
8
Black
10
186.406
20
-131.994
11
186.398
21
-131.998
0
LINE
8
Black
10
186.398
20
-131.998
11
186.373
21
-132.002
0
LINE
8
Black
10
186.373
20
-132.002
11
186.347
21
-132.009
0
LINE
8
Black
10
186.347
20
-132.009
11
186.339
21
-132.008
0
LINE
8
Black
10
186.339
20
-132.008
11
186.33
21
-132.01
0
LINE
8
Black
10
186.33
20
-132.01
11
185.972
21
-132.01
0
LINE
8
Black
10
185.972
20
-132.01
11
185.972
21
-132.03
0
LINE
8
Black
10
185.972
20
-132.03
11
184.576
21
-132.03
0
LINE
8
Black
10
184.576
20
-132.03
11
184.576
21
-131.599
0
LINE
8
Black
10
184.576
20
-131.599
11
185.972
21
-131.599
0
LINE
8
Black
10
185.972
20
-131.599
11
185.972
21
-131.61
0
LINE
8
Black
10
185.972
20
-131.61
11
186.247
21
-131.61
0
LINE
8
Black
10
186.247
20
-131.61
11
186.665
21
-131.192
0
LINE
8
Black
10
186.665
20
-131.192
11
186.665
21
-130.28
0
LINE
8
Black
10
186.665
20
-130.28
11
186.79
21
-130.28
0
LINE
8
Black
10
186.79
20
-130.28
11
186.79
21
-129.784
0
LINE
8
Black
10
186.79
20
-129.784
11
186.784
21
-129.778
0
LINE
8
Black
10
186.784
20
-129.778
11
184.902
21
-129.778
0
LINE
8
Black
10
184.902
20
-129.778
11
184.902
21
-127.542
0
LINE
8
Black
10
184.902
20
-127.542
11
187.138
21
-127.542
0
LINE
8
Black
10
187.138
20
-127.542
11
187.138
21
-129.424
0
LINE
8
Black
10
177.249
20
-120.672
11
177.258
21
-120.671
0
LINE
8
Black
10
177.258
20
-120.671
11
177.283
21
-120.678
0
LINE
8
Black
10
177.283
20
-120.678
11
177.309
21
-120.682
0
LINE
8
Black
10
177.309
20
-120.682
11
177.316
21
-120.687
0
LINE
8
Black
10
177.316
20
-120.687
11
177.325
21
-120.689
0
LINE
8
Black
10
177.325
20
-120.689
11
177.346
21
-120.704
0
LINE
8
Black
10
177.346
20
-120.704
11
177.369
21
-120.717
0
LINE
8
Black
10
177.369
20
-120.717
11
177.375
21
-120.724
0
LINE
8
Black
10
177.375
20
-120.724
11
177.382
21
-120.729
0
LINE
8
Black
10
177.382
20
-120.729
11
178.281
21
-121.629
0
LINE
8
Black
10
178.281
20
-121.629
11
178.286
21
-121.636
0
LINE
8
Black
10
178.286
20
-121.636
11
178.293
21
-121.641
0
LINE
8
Black
10
178.293
20
-121.641
11
178.306
21
-121.664
0
LINE
8
Black
10
178.306
20
-121.664
11
178.321
21
-121.685
0
LINE
8
Black
10
178.321
20
-121.685
11
178.324
21
-121.694
0
LINE
8
Black
10
178.324
20
-121.694
11
178.328
21
-121.702
0
LINE
8
Black
10
178.328
20
-121.702
11
178.332
21
-121.727
0
LINE
8
Black
10
178.332
20
-121.727
11
178.339
21
-121.753
0
LINE
8
Black
10
178.339
20
-121.753
11
178.338
21
-121.761
0
LINE
8
Black
10
178.338
20
-121.761
11
178.34
21
-121.77
0
LINE
8
Black
10
178.34
20
-121.77
11
178.34
21
-122.716
0
LINE
8
Black
10
178.34
20
-122.716
11
180.408
21
-125.114
0
LINE
8
Black
10
180.408
20
-125.114
11
180.553
21
-124.993
0
LINE
8
Black
10
180.553
20
-124.993
11
181.71
21
-126.373
0
LINE
8
Black
10
181.71
20
-126.373
11
181.22
21
-126.784
0
LINE
8
Black
10
181.22
20
-126.784
11
181.22
21
-126.95
0
LINE
8
Black
10
181.22
20
-126.95
11
181.395
21
-126.95
0
LINE
8
Black
10
181.395
20
-126.95
11
181.395
21
-127.396
0
LINE
8
Black
10
181.395
20
-127.396
11
182.19
21
-128.026
0
LINE
8
Black
10
182.19
20
-128.026
11
182.19
21
-128.02
0
LINE
8
Black
10
182.19
20
-128.02
11
183.89
21
-128.02
0
LINE
8
Black
10
183.89
20
-128.02
11
183.89
21
-129.697
0
LINE
8
Black
10
183.89
20
-129.697
11
184.848
21
-130.917
0
LINE
8
Black
10
184.848
20
-130.917
11
185.274
21
-130.917
0
LINE
8
Black
10
185.274
20
-130.917
11
185.36
21
-130.932
0
LINE
8
Black
10
185.36
20
-130.932
11
185.392
21
-130.951
0
LINE
8
Black
10
185.392
20
-130.951
11
185.972
21
-130.951
0
LINE
8
Black
10
185.972
20
-130.951
11
185.972
21
-131.383
0
LINE
8
Black
10
185.972
20
-131.383
11
185.392
21
-131.383
0
LINE
8
Black
10
185.392
20
-131.383
11
185.36
21
-131.402
0
LINE
8
Black
10
185.36
20
-131.402
11
185.274
21
-131.417
0
LINE
8
Black
10
185.274
20
-131.417
11
184.727
21
-131.417
0
LINE
8
Black
10
184.727
20
-131.417
11
184.701
21
-131.412
0
LINE
8
Black
10
184.701
20
-131.412
11
184.676
21
-131.412
0
LINE
8
Black
10
184.676
20
-131.412
11
184.659
21
-131.405
0
LINE
8
Black
10
184.659
20
-131.405
11
184.641
21
-131.402
0
LINE
8
Black
10
184.641
20
-131.402
11
184.619
21
-131.389
0
LINE
8
Black
10
184.619
20
-131.389
11
184.604
21
-131.383
0
LINE
8
Black
10
184.604
20
-131.383
11
184.576
21
-131.383
0
LINE
8
Black
10
184.576
20
-131.383
11
184.576
21
-131.364
0
LINE
8
Black
10
184.576
20
-131.364
11
184.566
21
-131.358
0
LINE
8
Black
10
184.566
20
-131.358
11
184.55
21
-131.339
0
LINE
8
Black
10
184.55
20
-131.339
11
184.53
21
-131.321
0
LINE
8
Black
10
184.53
20
-131.321
11
183.508
21
-130.02
0
LINE
8
Black
10
183.508
20
-130.02
11
182.19
21
-130.02
0
LINE
8
Black
10
182.19
20
-130.02
11
182.19
21
-128.665
0
LINE
8
Black
10
182.19
20
-128.665
11
181.395
21
-128.034
0
LINE
8
Black
10
181.395
20
-128.034
11
181.395
21
-128.15
0
LINE
8
Black
10
181.395
20
-128.15
11
180.645
21
-128.15
0
LINE
8
Black
10
180.645
20
-128.15
11
180.645
21
-126.95
0
LINE
8
Black
10
180.645
20
-126.95
11
180.82
21
-126.95
0
LINE
8
Black
10
180.82
20
-126.95
11
180.82
21
-126.556
0
LINE
8
Black
10
180.82
20
-126.556
11
179.94
21
-125.507
0
LINE
8
Black
10
179.94
20
-125.507
11
180.102
21
-125.371
0
LINE
8
Black
10
180.102
20
-125.371
11
177.989
21
-122.921
0
LINE
8
Black
10
177.989
20
-122.921
11
177.988
21
-122.919
0
LINE
8
Black
10
177.988
20
-122.919
11
177.987
21
-122.919
0
LINE
8
Black
10
177.987
20
-122.919
11
177.97
21
-122.89
0
LINE
8
Black
10
177.97
20
-122.89
11
177.953
21
-122.861
0
LINE
8
Black
10
177.953
20
-122.861
11
177.953
21
-122.86
0
LINE
8
Black
10
177.953
20
-122.86
11
177.952
21
-122.858
0
LINE
8
Black
10
177.952
20
-122.858
11
177.946
21
-122.825
0
LINE
8
Black
10
177.946
20
-122.825
11
177.94
21
-122.793
0
LINE
8
Black
10
177.94
20
-122.793
11
177.94
21
-122.791
0
LINE
8
Black
10
177.94
20
-122.791
11
177.94
21
-122.79
0
LINE
8
Black
10
177.94
20
-122.79
11
177.94
21
-121.853
0
LINE
8
Black
10
177.94
20
-121.853
11
177.157
21
-121.07
0
LINE
8
Black
10
177.157
20
-121.07
11
176.938
21
-121.07
0
LINE
8
Black
10
176.938
20
-121.07
11
174.189
21
-121.07
0
LINE
8
Black
10
174.189
20
-121.07
11
174.18
21
-121.069
0
LINE
8
Black
10
174.18
20
-121.069
11
174.172
21
-121.07
0
LINE
8
Black
10
174.172
20
-121.07
11
174.146
21
-121.063
0
LINE
8
Black
10
174.146
20
-121.063
11
174.121
21
-121.058
0
LINE
8
Black
10
174.121
20
-121.058
11
174.113
21
-121.054
0
LINE
8
Black
10
174.113
20
-121.054
11
174.105
21
-121.052
0
LINE
8
Black
10
174.105
20
-121.052
11
174.083
21
-121.037
0
LINE
8
Black
10
174.083
20
-121.037
11
174.06
21
-121.024
0
LINE
8
Black
10
174.06
20
-121.024
11
174.055
21
-121.017
0
LINE
8
Black
10
174.055
20
-121.017
11
174.048
21
-121.012
0
LINE
8
Black
10
174.048
20
-121.012
11
170.004
21
-116.969
0
LINE
8
Black
10
170.004
20
-116.969
11
169.708
21
-117.139
0
LINE
8
Black
10
169.708
20
-117.139
11
169.279
21
-117.215
0
LINE
8
Black
10
169.279
20
-117.215
11
168.85
21
-117.139
0
LINE
8
Black
10
168.85
20
-117.139
11
168.473
21
-116.922
0
LINE
8
Black
10
168.473
20
-116.922
11
168.193
21
-116.588
0
LINE
8
Black
10
168.193
20
-116.588
11
168.044
21
-116.178
0
LINE
8
Black
10
168.044
20
-116.178
11
168.044
21
-115.743
0
LINE
8
Black
10
168.044
20
-115.743
11
168.193
21
-115.333
0
LINE
8
Black
10
168.193
20
-115.333
11
168.473
21
-115
0
LINE
8
Black
10
168.473
20
-115
11
168.85
21
-114.782
0
LINE
8
Black
10
168.85
20
-114.782
11
169.279
21
-114.706
0
LINE
8
Black
10
169.279
20
-114.706
11
169.708
21
-114.782
0
LINE
8
Black
10
169.708
20
-114.782
11
170.086
21
-115
0
LINE
8
Black
10
170.086
20
-115
11
170.366
21
-115.333
0
LINE
8
Black
10
170.366
20
-115.333
11
170.515
21
-115.743
0
LINE
8
Black
10
170.515
20
-115.743
11
170.515
21
-116.178
0
LINE
8
Black
10
170.515
20
-116.178
11
170.366
21
-116.588
0
LINE
8
Black
10
170.366
20
-116.588
11
170.285
21
-116.684
0
LINE
8
Black
10
170.285
20
-116.684
11
174.272
21
-120.67
0
LINE
8
Black
10
174.272
20
-120.67
11
176.938
21
-120.67
0
LINE
8
Black
10
176.938
20
-120.67
11
177.24
21
-120.67
0
LINE
8
Black
10
177.24
20
-120.67
11
177.249
21
-120.672
0
LINE
8
Black
10
171.6
20
-129.36
11
171
21
-129.36
0
LINE
8
Black
10
171
20
-129.36
11
171
21
-129.935
0
LINE
8
Black
10
171
20
-129.935
11
171.05
21
-129.964
0
LINE
8
Black
10
171.05
20
-129.964
11
171.151
21
-130.084
0
LINE
8
Black
10
171.151
20
-130.084
11
171.205
21
-130.232
0
LINE
8
Black
10
171.205
20
-130.232
11
171.205
21
-130.388
0
LINE
8
Black
10
171.205
20
-130.388
11
171.151
21
-130.536
0
LINE
8
Black
10
171.151
20
-130.536
11
171.05
21
-130.656
0
LINE
8
Black
10
171.05
20
-130.656
11
170.914
21
-130.734
0
LINE
8
Black
10
170.914
20
-130.734
11
170.76
21
-130.762
0
LINE
8
Black
10
170.76
20
-130.762
11
170.606
21
-130.734
0
LINE
8
Black
10
170.606
20
-130.734
11
170.47
21
-130.656
0
LINE
8
Black
10
170.47
20
-130.656
11
170.369
21
-130.536
0
LINE
8
Black
10
170.369
20
-130.536
11
170.315
21
-130.388
0
LINE
8
Black
10
170.315
20
-130.388
11
170.315
21
-130.232
0
LINE
8
Black
10
170.315
20
-130.232
11
170.369
21
-130.084
0
LINE
8
Black
10
170.369
20
-130.084
11
170.47
21
-129.964
0
LINE
8
Black
10
170.47
20
-129.964
11
170.5
21
-129.946
0
LINE
8
Black
10
170.5
20
-129.946
11
170.5
21
-129.36
0
LINE
8
Black
10
170.5
20
-129.36
11
169.9
21
-129.36
0
LINE
8
Black
10
169.9
20
-129.36
11
169.9
21
-127.36
0
LINE
8
Black
10
169.9
20
-127.36
11
171.6
21
-127.36
0
LINE
8
Black
10
171.6
20
-127.36
11
171.6
21
-129.36
0
LINE
8
Black
10
181.395
20
-130.05
11
180.645
21
-130.05
0
LINE
8
Black
10
180.645
20
-130.05
11
180.645
21
-129.82
0
LINE
8
Black
10
180.645
20
-129.82
11
180.409
21
-129.845
0
LINE
8
Black
10
180.409
20
-129.845
11
180.415
21
-129.862
0
LINE
8
Black
10
180.415
20
-129.862
11
180.415
21
-130.018
0
LINE
8
Black
10
180.415
20
-130.018
11
180.361
21
-130.166
0
LINE
8
Black
10
180.361
20
-130.166
11
180.26
21
-130.286
0
LINE
8
Black
10
180.26
20
-130.286
11
180.124
21
-130.364
0
LINE
8
Black
10
180.124
20
-130.364
11
179.97
21
-130.392
0
LINE
8
Black
10
179.97
20
-130.392
11
179.816
21
-130.364
0
LINE
8
Black
10
179.816
20
-130.364
11
179.68
21
-130.286
0
LINE
8
Black
10
179.68
20
-130.286
11
179.579
21
-130.166
0
LINE
8
Black
10
179.579
20
-130.166
11
179.525
21
-130.018
0
LINE
8
Black
10
179.525
20
-130.018
11
179.525
21
-129.862
0
LINE
8
Black
10
179.525
20
-129.862
11
179.579
21
-129.714
0
LINE
8
Black
10
179.579
20
-129.714
11
179.68
21
-129.594
0
LINE
8
Black
10
179.68
20
-129.594
11
179.816
21
-129.516
0
LINE
8
Black
10
179.816
20
-129.516
11
179.928
21
-129.496
0
LINE
8
Black
10
179.928
20
-129.496
11
179.935
21
-129.493
0
LINE
8
Black
10
179.935
20
-129.493
11
179.942
21
-129.493
0
LINE
8
Black
10
179.942
20
-129.493
11
179.949
21
-129.491
0
LINE
8
Black
10
179.949
20
-129.491
11
179.961
21
-129.49
0
LINE
8
Black
10
179.961
20
-129.49
11
179.97
21
-129.488
0
LINE
8
Black
10
179.97
20
-129.488
11
179.972
21
-129.489
0
LINE
8
Black
10
179.972
20
-129.489
11
180.645
21
-129.418
0
LINE
8
Black
10
180.645
20
-129.418
11
180.645
21
-128.85
0
LINE
8
Black
10
180.645
20
-128.85
11
181.395
21
-128.85
0
LINE
8
Black
10
181.395
20
-128.85
11
181.395
21
-130.05
0
LINE
8
Black
10
179.053
20
-124.683
11
178.44
21
-125.198
0
LINE
8
Black
10
178.44
20
-125.198
11
177.946
21
-124.609
0
LINE
8
Black
10
177.946
20
-124.609
11
176.913
21
-125.022
0
LINE
8
Black
10
176.913
20
-125.022
11
176.912
21
-125.022
0
LINE
8
Black
10
176.912
20
-125.022
11
176.912
21
-125.023
0
LINE
8
Black
10
176.912
20
-125.023
11
175.82
21
-125.454
0
LINE
8
Black
10
175.82
20
-125.454
11
175.82
21
-126.43
0
LINE
8
Black
10
175.82
20
-126.43
11
174.945
21
-126.43
0
LINE
8
Black
10
174.945
20
-126.43
11
174.945
21
-127.19
0
LINE
8
Black
10
174.945
20
-127.19
11
175.76
21
-127.19
0
LINE
8
Black
10
175.76
20
-127.19
11
175.76
21
-129.19
0
LINE
8
Black
10
175.76
20
-129.19
11
174.06
21
-129.19
0
LINE
8
Black
10
174.06
20
-129.19
11
174.06
21
-127.19
0
LINE
8
Black
10
174.06
20
-127.19
11
174.695
21
-127.19
0
LINE
8
Black
10
174.695
20
-127.19
11
174.695
21
-126.43
0
LINE
8
Black
10
174.695
20
-126.43
11
173.82
21
-126.43
0
LINE
8
Black
10
173.82
20
-126.43
11
173.82
21
-124.73
0
LINE
8
Black
10
173.82
20
-124.73
11
175.82
21
-124.73
0
LINE
8
Black
10
175.82
20
-124.73
11
175.82
21
-124.916
0
LINE
8
Black
10
175.82
20
-124.916
11
176.728
21
-124.558
0
LINE
8
Black
10
176.728
20
-124.558
11
177.607
21
-124.206
0
LINE
8
Black
10
177.607
20
-124.206
11
177.282
21
-123.818
0
LINE
8
Black
10
177.282
20
-123.818
11
177.895
21
-123.304
0
LINE
8
Black
10
177.895
20
-123.304
11
179.053
21
-124.683
0
LINE
8
Black
10
176.786
20
-115.734
11
177.073
21
-115.899
0
LINE
8
Black
10
177.073
20
-115.899
11
177.286
21
-116.153
0
LINE
8
Black
10
177.286
20
-116.153
11
177.399
21
-116.464
0
LINE
8
Black
10
177.399
20
-116.464
11
177.399
21
-116.505
0
LINE
8
Black
10
177.399
20
-116.505
11
184.16
21
-116.505
0
LINE
8
Black
10
184.16
20
-116.505
11
184.165
21
-116.506
0
LINE
8
Black
10
184.165
20
-116.506
11
184.171
21
-116.505
0
LINE
8
Black
10
184.171
20
-116.505
11
184.187
21
-116.51
0
LINE
8
Black
10
184.187
20
-116.51
11
184.203
21
-116.513
0
LINE
8
Black
10
184.203
20
-116.513
11
184.208
21
-116.515
0
LINE
8
Black
10
184.208
20
-116.515
11
184.213
21
-116.517
0
LINE
8
Black
10
184.213
20
-116.517
11
184.226
21
-116.526
0
LINE
8
Black
10
184.226
20
-116.526
11
184.24
21
-116.534
0
LINE
8
Black
10
184.24
20
-116.534
11
184.244
21
-116.538
0
LINE
8
Black
10
184.244
20
-116.538
11
184.248
21
-116.542
0
LINE
8
Black
10
184.248
20
-116.542
11
185.128
21
-117.422
0
LINE
8
Black
10
185.128
20
-117.422
11
185.132
21
-117.426
0
LINE
8
Black
10
185.132
20
-117.426
11
185.136
21
-117.43
0
LINE
8
Black
10
185.136
20
-117.43
11
185.144
21
-117.444
0
LINE
8
Black
10
185.144
20
-117.444
11
185.153
21
-117.457
0
LINE
8
Black
10
185.153
20
-117.457
11
185.155
21
-117.462
0
LINE
8
Black
10
185.155
20
-117.462
11
185.157
21
-117.467
0
LINE
8
Black
10
185.157
20
-117.467
11
185.16
21
-117.483
0
LINE
8
Black
10
185.16
20
-117.483
11
185.165
21
-117.499
0
LINE
8
Black
10
185.165
20
-117.499
11
185.164
21
-117.505
0
LINE
8
Black
10
185.164
20
-117.505
11
185.165
21
-117.51
0
LINE
8
Black
10
185.165
20
-117.51
11
185.165
21
-120.588
0
LINE
8
Black
10
185.165
20
-120.588
11
189.208
21
-124.632
0
LINE
8
Black
10
189.208
20
-124.632
11
189.212
21
-124.636
0
LINE
8
Black
10
189.212
20
-124.636
11
189.216
21
-124.64
0
LINE
8
Black
10
189.216
20
-124.64
11
189.224
21
-124.654
0
LINE
8
Black
10
189.224
20
-124.654
11
189.233
21
-124.667
0
LINE
8
Black
10
189.233
20
-124.667
11
189.235
21
-124.672
0
LINE
8
Black
10
189.235
20
-124.672
11
189.237
21
-124.677
0
LINE
8
Black
10
189.237
20
-124.677
11
189.24
21
-124.693
0
LINE
8
Black
10
189.24
20
-124.693
11
189.245
21
-124.709
0
LINE
8
Black
10
189.245
20
-124.709
11
189.244
21
-124.715
0
LINE
8
Black
10
189.244
20
-124.715
11
189.245
21
-124.72
0
LINE
8
Black
10
189.245
20
-124.72
11
189.245
21
-126.46
0
LINE
8
Black
10
189.245
20
-126.46
11
189.97
21
-126.46
0
LINE
8
Black
10
189.97
20
-126.46
11
189.97
21
-128.46
0
LINE
8
Black
10
189.97
20
-128.46
11
188.27
21
-128.46
0
LINE
8
Black
10
188.27
20
-128.46
11
188.27
21
-126.46
0
LINE
8
Black
10
188.27
20
-126.46
11
188.995
21
-126.46
0
LINE
8
Black
10
188.995
20
-126.46
11
188.995
21
-124.772
0
LINE
8
Black
10
188.995
20
-124.772
11
184.952
21
-120.728
0
LINE
8
Black
10
184.952
20
-120.728
11
184.948
21
-120.724
0
LINE
8
Black
10
184.948
20
-120.724
11
184.944
21
-120.72
0
LINE
8
Black
10
184.944
20
-120.72
11
184.936
21
-120.706
0
LINE
8
Black
10
184.936
20
-120.706
11
184.927
21
-120.693
0
LINE
8
Black
10
184.927
20
-120.693
11
184.925
21
-120.688
0
LINE
8
Black
10
184.925
20
-120.688
11
184.923
21
-120.683
0
LINE
8
Black
10
184.923
20
-120.683
11
184.92
21
-120.667
0
LINE
8
Black
10
184.92
20
-120.667
11
184.915
21
-120.651
0
LINE
8
Black
10
184.915
20
-120.651
11
184.916
21
-120.645
0
LINE
8
Black
10
184.916
20
-120.645
11
184.915
21
-120.64
0
LINE
8
Black
10
184.915
20
-120.64
11
184.915
21
-117.562
0
LINE
8
Black
10
184.915
20
-117.562
11
184.108
21
-116.755
0
LINE
8
Black
10
184.108
20
-116.755
11
177.399
21
-116.755
0
LINE
8
Black
10
177.399
20
-116.755
11
177.399
21
-116.796
0
LINE
8
Black
10
177.399
20
-116.796
11
177.286
21
-117.107
0
LINE
8
Black
10
177.286
20
-117.107
11
177.073
21
-117.361
0
LINE
8
Black
10
177.073
20
-117.361
11
176.786
21
-117.526
0
LINE
8
Black
10
176.786
20
-117.526
11
176.46
21
-117.584
0
LINE
8
Black
10
176.46
20
-117.584
11
176.134
21
-117.526
0
LINE
8
Black
10
176.134
20
-117.526
11
175.847
21
-117.361
0
LINE
8
Black
10
175.847
20
-117.361
11
175.634
21
-117.107
0
LINE
8
Black
10
175.634
20
-117.107
11
175.521
21
-116.796
0
LINE
8
Black
10
175.521
20
-116.796
11
175.521
21
-116.464
0
LINE
8
Black
10
175.521
20
-116.464
11
175.634
21
-116.153
0
LINE
8
Black
10
175.634
20
-116.153
11
175.847
21
-115.899
0
LINE
8
Black
10
175.847
20
-115.899
11
176.134
21
-115.734
0
LINE
8
Black
10
176.134
20
-115.734
11
176.46
21
-115.676
0
LINE
8
Black
10
176.46
20
-115.676
11
176.786
21
-115.734
0
LINE
8
Black
10
171.82
20
-126.43
11
169.82
21
-126.43
0
LINE
8
Black
10
169.82
20
-126.43
11
169.82
21
-125.565
0
LINE
8
Black
10
169.82
20
-125.565
11
169.005
21
-125.565
0
LINE
8
Black
10
169.005
20
-125.565
11
169.005
21
-126.04
0
LINE
8
Black
10
169.005
20
-126.04
11
168.255
21
-126.04
0
LINE
8
Black
10
168.255
20
-126.04
11
168.255
21
-125.695
0
LINE
8
Black
10
168.255
20
-125.695
11
167.669
21
-125.695
0
LINE
8
Black
10
167.669
20
-125.695
11
167.669
21
-127.24
0
LINE
8
Black
10
167.669
20
-127.24
11
165.868
21
-127.24
0
LINE
8
Black
10
165.868
20
-127.24
11
165.868
21
-124.84
0
LINE
8
Black
10
165.868
20
-124.84
11
167.669
21
-124.84
0
LINE
8
Black
10
167.669
20
-124.84
11
167.669
21
-125.445
0
LINE
8
Black
10
167.669
20
-125.445
11
168.255
21
-125.445
0
LINE
8
Black
10
168.255
20
-125.445
11
168.255
21
-124.84
0
LINE
8
Black
10
168.255
20
-124.84
11
169.005
21
-124.84
0
LINE
8
Black
10
169.005
20
-124.84
11
169.005
21
-125.315
0
LINE
8
Black
10
169.005
20
-125.315
11
169.82
21
-125.315
0
LINE
8
Black
10
169.82
20
-125.315
11
169.82
21
-124.73
0
LINE
8
Black
10
169.82
20
-124.73
11
171.82
21
-124.73
0
LINE
8
Black
10
171.82
20
-124.73
11
171.82
21
-126.43
0
LINE
8
Black
10
186.413
20
-123.921
11
186.79
21
-124.139
0
LINE
8
Black
10
186.79
20
-124.139
11
187.07
21
-124.472
0
LINE
8
Black
10
187.07
20
-124.472
11
187.219
21
-124.882
0
LINE
8
Black
10
187.219
20
-124.882
11
187.219
21
-125.317
0
LINE
8
Black
10
187.219
20
-125.317
11
187.07
21
-125.727
0
LINE
8
Black
10
187.07
20
-125.727
11
186.79
21
-126.061
0
LINE
8
Black
10
186.79
20
-126.061
11
186.413
21
-126.278
0
LINE
8
Black
10
186.413
20
-126.278
11
185.984
21
-126.354
0
LINE
8
Black
10
185.984
20
-126.354
11
185.555
21
-126.278
0
LINE
8
Black
10
185.555
20
-126.278
11
185.177
21
-126.061
0
LINE
8
Black
10
185.177
20
-126.061
11
184.897
21
-125.727
0
LINE
8
Black
10
184.897
20
-125.727
11
184.748
21
-125.317
0
LINE
8
Black
10
184.748
20
-125.317
11
184.748
21
-124.882
0
LINE
8
Black
10
184.748
20
-124.882
11
184.897
21
-124.472
0
LINE
8
Black
10
184.897
20
-124.472
11
185.177
21
-124.139
0
LINE
8
Black
10
185.177
20
-124.139
11
185.555
21
-123.921
0
LINE
8
Black
10
185.555
20
-123.921
11
185.984
21
-123.845
0
LINE
8
Black
10
185.984
20
-123.845
11
186.413
21
-123.921
0
LINE
8
Black
10
183.539
20
-120.07
11
183.281
21
-120.07
0
LINE
8
Black
10
183.281
20
-120.07
11
183.289
21
-120.099
0
LINE
8
Black
10
183.289
20
-120.099
11
183.288
21
-120.11
0
LINE
8
Black
10
183.288
20
-120.11
11
183.29
21
-120.121
0
LINE
8
Black
10
183.29
20
-120.121
11
183.29
21
-124.02
0
LINE
8
Black
10
183.29
20
-124.02
11
183.89
21
-124.02
0
LINE
8
Black
10
183.89
20
-124.02
11
183.89
21
-126.02
0
LINE
8
Black
10
183.89
20
-126.02
11
182.19
21
-126.02
0
LINE
8
Black
10
182.19
20
-126.02
11
182.19
21
-124.02
0
LINE
8
Black
10
182.19
20
-124.02
11
182.79
21
-124.02
0
LINE
8
Black
10
182.79
20
-124.02
11
182.79
21
-120.225
0
LINE
8
Black
10
182.79
20
-120.225
11
182.635
21
-120.07
0
LINE
8
Black
10
182.635
20
-120.07
11
181.443
21
-120.07
0
LINE
8
Black
10
181.443
20
-120.07
11
180.782
21
-121.335
0
LINE
8
Black
10
180.782
20
-121.335
11
179.996
21
-122.852
0
LINE
8
Black
10
179.996
20
-122.852
11
180.508
21
-123.462
0
LINE
8
Black
10
180.508
20
-123.462
11
179.895
21
-123.976
0
LINE
8
Black
10
179.895
20
-123.976
11
178.738
21
-122.597
0
LINE
8
Black
10
178.738
20
-122.597
11
179.35
21
-122.082
0
LINE
8
Black
10
179.35
20
-122.082
11
179.648
21
-122.437
0
LINE
8
Black
10
179.648
20
-122.437
11
180.338
21
-121.105
0
LINE
8
Black
10
180.338
20
-121.105
11
180.338
21
-121.105
0
LINE
8
Black
10
180.338
20
-121.105
11
180.338
21
-121.104
0
LINE
8
Black
10
180.338
20
-121.104
11
180.879
21
-120.07
0
LINE
8
Black
10
180.879
20
-120.07
11
180.039
21
-120.07
0
LINE
8
Black
10
180.039
20
-120.07
11
180.039
21
-117.67
0
LINE
8
Black
10
180.039
20
-117.67
11
183.539
21
-117.67
0
LINE
8
Black
10
183.539
20
-117.67
11
183.539
21
-120.07
0
LINE
8
Black
10
169.708
20
-119.781
11
170.086
21
-119.998
0
LINE
8
Black
10
170.086
20
-119.998
11
170.366
21
-120.332
0
LINE
8
Black
10
170.366
20
-120.332
11
170.515
21
-120.742
0
LINE
8
Black
10
170.515
20
-120.742
11
170.515
21
-121.177
0
LINE
8
Black
10
170.515
20
-121.177
11
170.366
21
-121.587
0
LINE
8
Black
10
170.366
20
-121.587
11
170.086
21
-121.92
0
LINE
8
Black
10
170.086
20
-121.92
11
169.708
21
-122.138
0
LINE
8
Black
10
169.708
20
-122.138
11
169.279
21
-122.214
0
LINE
8
Black
10
169.279
20
-122.214
11
168.85
21
-122.138
0
LINE
8
Black
10
168.85
20
-122.138
11
168.83
21
-122.126
0
LINE
8
Black
10
168.83
20
-122.126
11
168.83
21
-122.94
0
LINE
8
Black
10
168.83
20
-122.94
11
169.005
21
-122.94
0
LINE
8
Black
10
169.005
20
-122.94
11
169.005
21
-124.14
0
LINE
8
Black
10
169.005
20
-124.14
11
168.255
21
-124.14
0
LINE
8
Black
10
168.255
20
-124.14
11
168.255
21
-122.94
0
LINE
8
Black
10
168.255
20
-122.94
11
168.43
21
-122.94
0
LINE
8
Black
10
168.43
20
-122.94
11
168.43
21
-121.869
0
LINE
8
Black
10
168.43
20
-121.869
11
168.193
21
-121.587
0
LINE
8
Black
10
168.193
20
-121.587
11
168.044
21
-121.177
0
LINE
8
Black
10
168.044
20
-121.177
11
168.044
21
-120.742
0
LINE
8
Black
10
168.044
20
-120.742
11
168.193
21
-120.332
0
LINE
8
Black
10
168.193
20
-120.332
11
168.473
21
-119.998
0
LINE
8
Black
10
168.473
20
-119.998
11
168.85
21
-119.781
0
LINE
8
Black
10
168.85
20
-119.781
11
169.279
21
-119.705
0
LINE
8
Black
10
169.279
20
-119.705
11
169.708
21
-119.781
0
LINE
8
Black
10
176.599
20
-121.291
11
176.976
21
-121.509
0
LINE
8
Black
10
176.976
20
-121.509
11
177.256
21
-121.843
0
LINE
8
Black
10
177.256
20
-121.843
11
177.405
21
-122.252
0
LINE
8
Black
10
177.405
20
-122.252
11
177.405
21
-122.688
0
LINE
8
Black
10
177.405
20
-122.688
11
177.256
21
-123.097
0
LINE
8
Black
10
177.256
20
-123.097
11
176.976
21
-123.431
0
LINE
8
Black
10
176.976
20
-123.431
11
176.599
21
-123.649
0
LINE
8
Black
10
176.599
20
-123.649
11
176.17
21
-123.724
0
LINE
8
Black
10
176.17
20
-123.724
11
175.741
21
-123.649
0
LINE
8
Black
10
175.741
20
-123.649
11
175.364
21
-123.431
0
LINE
8
Black
10
175.364
20
-123.431
11
175.084
21
-123.097
0
LINE
8
Black
10
175.084
20
-123.097
11
174.935
21
-122.688
0
LINE
8
Black
10
174.935
20
-122.688
11
174.935
21
-122.252
0
LINE
8
Black
10
174.935
20
-122.252
11
175.084
21
-121.843
0
LINE
8
Black
10
175.084
20
-121.843
11
175.364
21
-121.509
0
LINE
8
Black
10
175.364
20
-121.509
11
175.741
21
-121.291
0
LINE
8
Black
10
175.741
20
-121.291
11
176.17
21
-121.216
0
LINE
8
Black
10
176.17
20
-121.216
11
176.599
21
-121.291
0
LINE
8
Black
10
177.46
20
-120.12
11
175.46
21
-120.12
0
LINE
8
Black
10
175.46
20
-120.12
11
175.46
21
-118.22
0
LINE
8
Black
10
175.46
20
-118.22
11
177.46
21
-118.22
0
LINE
8
Black
10
177.46
20
-118.22
11
177.46
21
-120.12
0
LINE
8
Black
10
190.041
20
-120.07
11
186.541
21
-120.07
0
LINE
8
Black
10
186.541
20
-120.07
11
186.541
21
-117.67
0
LINE
8
Black
10
186.541
20
-117.67
11
190.041
21
-117.67
0
LINE
8
Black
10
190.041
20
-117.67
11
190.041
21
-120.07
0
CIRCLE
8
Black
10
179.69
20
-134.01
40
0.35
0
CIRCLE
8
Black
10
170.76
20
-130.31
40
0.35
0
CIRCLE
8
Black
10
171.87
20
-136.88
40
0.35
0
CIRCLE
8
Black
10
174.62
20
-137.59
40
0.35
0
CIRCLE
8
Black
10
179.97
20
-129.94
40
0.35
0
CIRCLE
8
Black
10
182.64
20
-132.86
40
0.35
0
CIRCLE
8
Black
10
183.04
20
-129.02
40
0.35
  0
ENDSEC
  0
EOF
