  0
SECTION
  2
HEADER
  9
$ANGBASE
  50
0.0
  9
$ANGDIR
  70
  1
  9
$MEASUREMENT
  70
0
  0
ENDSEC
  0
SECTION
  2
TABLES
  0
TABLE
  2
LTYPE
  70
1
  0
LTYPE
  2
CONTINUOUS
  70
0
  3
Solid line
  72
65
  73
0
  40
0.0
  0
ENDTAB
  0
TABLE
  2
STYLE
  70
4
  0
STYLE
  2
KICAD
  70
0
  40
0
  41
1
  42
1
  50
0
  71
0
  3
isocp.shx
  0
STYLE
  2
KICADB
  70
0
  40
0
  41
1
  42
1
  50
0
  71
0
  3
isocp.shx
  0
STYLE
  2
KICADI
  70
0
  40
0
  41
1
  42
1
  50
15
  71
0
  3
isocp.shx
  0
STYLE
  2
KICADBI
  70
0
  40
0
  41
1
  42
1
  50
15
  71
0
  3
isocp.shx
  0
ENDTAB
  0
TABLE
  2
LAYER
  70
30
  0
LAYER
  2
BLACK
  70
0
  62
7
  6
CONTINUOUS
  0
LAYER
  2
GRAY1
  70
0
  62
251
  6
CONTINUOUS
  0
LAYER
  2
GRAY2
  70
0
  62
8
  6
CONTINUOUS
  0
LAYER
  2
GRAY3
  70
0
  62
9
  6
CONTINUOUS
  0
LAYER
  2
WHITE
  70
0
  62
7
  6
CONTINUOUS
  0
LAYER
  2
LYELLOW
  70
0
  62
51
  6
CONTINUOUS
  0
LAYER
  2
BLUE1
  70
0
  62
178
  6
CONTINUOUS
  0
LAYER
  2
GREEN1
  70
0
  62
98
  6
CONTINUOUS
  0
LAYER
  2
CYAN1
  70
0
  62
138
  6
CONTINUOUS
  0
LAYER
  2
RED1
  70
0
  62
18
  6
CONTINUOUS
  0
LAYER
  2
MAGENTA1
  70
0
  62
228
  6
CONTINUOUS
  0
LAYER
  2
BROWN1
  70
0
  62
58
  6
CONTINUOUS
  0
LAYER
  2
BLUE2
  70
0
  62
5
  6
CONTINUOUS
  0
LAYER
  2
GREEN2
  70
0
  62
3
  6
CONTINUOUS
  0
LAYER
  2
CYAN2
  70
0
  62
4
  6
CONTINUOUS
  0
LAYER
  2
RED2
  70
0
  62
1
  6
CONTINUOUS
  0
LAYER
  2
MAGENTA2
  70
0
  62
6
  6
CONTINUOUS
  0
LAYER
  2
BROWN2
  70
0
  62
54
  6
CONTINUOUS
  0
LAYER
  2
BLUE3
  70
0
  62
171
  6
CONTINUOUS
  0
LAYER
  2
GREEN3
  70
0
  62
91
  6
CONTINUOUS
  0
LAYER
  2
CYAN3
  70
0
  62
131
  6
CONTINUOUS
  0
LAYER
  2
RED3
  70
0
  62
11
  6
CONTINUOUS
  0
LAYER
  2
MAGENTA3
  70
0
  62
221
  6
CONTINUOUS
  0
LAYER
  2
YELLOW3
  70
0
  62
2
  6
CONTINUOUS
  0
LAYER
  2
BLUE4
  70
0
  62
5
  6
CONTINUOUS
  0
LAYER
  2
GREEN4
  70
0
  62
3
  6
CONTINUOUS
  0
LAYER
  2
CYAN4
  70
0
  62
4
  6
CONTINUOUS
  0
LAYER
  2
RED4
  70
0
  62
1
  6
CONTINUOUS
  0
LAYER
  2
MAGENTA4
  70
0
  62
6
  6
CONTINUOUS
  0
LAYER
  2
YELLOW4
  70
0
  62
2
  6
CONTINUOUS
  0
ENDTAB
  0
ENDSEC
  0
SECTION
  2
ENTITIES
0
LINE
8
Black
10
190.506
20
-114.226
11
190.513
21
-114.226
0
LINE
8
Black
10
190.513
20
-114.226
11
190.519
21
-114.228
0
LINE
8
Black
10
190.519
20
-114.228
11
190.526
21
-114.23
0
LINE
8
Black
10
190.526
20
-114.23
11
190.531
21
-114.233
0
LINE
8
Black
10
190.531
20
-114.233
11
190.537
21
-114.235
0
LINE
8
Black
10
190.537
20
-114.235
11
190.543
21
-114.239
0
LINE
8
Black
10
190.543
20
-114.239
11
190.548
21
-114.243
0
LINE
8
Black
10
190.548
20
-114.243
11
190.552
21
-114.248
0
LINE
8
Black
10
190.552
20
-114.248
11
190.557
21
-114.252
0
LINE
8
Black
10
190.557
20
-114.252
11
190.561
21
-114.257
0
LINE
8
Black
10
190.561
20
-114.257
11
190.565
21
-114.262
0
LINE
8
Black
10
190.565
20
-114.262
11
190.567
21
-114.269
0
LINE
8
Black
10
190.567
20
-114.269
11
190.57
21
-114.274
0
LINE
8
Black
10
190.57
20
-114.274
11
190.572
21
-114.281
0
LINE
8
Black
10
190.572
20
-114.281
11
190.574
21
-114.287
0
LINE
8
Black
10
190.574
20
-114.287
11
190.574
21
-114.294
0
LINE
8
Black
10
190.574
20
-114.294
11
190.575
21
-114.3
0
LINE
8
Black
10
190.575
20
-114.3
11
190.575
21
-140.97
0
LINE
8
Black
10
190.575
20
-140.97
11
190.574
21
-140.976
0
LINE
8
Black
10
190.574
20
-140.976
11
190.574
21
-140.983
0
LINE
8
Black
10
190.574
20
-140.983
11
190.572
21
-140.989
0
LINE
8
Black
10
190.572
20
-140.989
11
190.57
21
-140.996
0
LINE
8
Black
10
190.57
20
-140.996
11
190.567
21
-141.001
0
LINE
8
Black
10
190.567
20
-141.001
11
190.565
21
-141.007
0
LINE
8
Black
10
190.565
20
-141.007
11
190.561
21
-141.013
0
LINE
8
Black
10
190.561
20
-141.013
11
190.557
21
-141.018
0
LINE
8
Black
10
190.557
20
-141.018
11
190.552
21
-141.022
0
LINE
8
Black
10
190.552
20
-141.022
11
190.548
21
-141.027
0
LINE
8
Black
10
190.548
20
-141.027
11
190.543
21
-141.031
0
LINE
8
Black
10
190.543
20
-141.031
11
190.537
21
-141.035
0
LINE
8
Black
10
190.537
20
-141.035
11
190.531
21
-141.037
0
LINE
8
Black
10
190.531
20
-141.037
11
190.526
21
-141.04
0
LINE
8
Black
10
190.526
20
-141.04
11
190.519
21
-141.042
0
LINE
8
Black
10
190.519
20
-141.042
11
190.513
21
-141.044
0
LINE
8
Black
10
190.513
20
-141.044
11
190.506
21
-141.044
0
LINE
8
Black
10
190.506
20
-141.044
11
190.5
21
-141.045
0
LINE
8
Black
10
190.5
20
-141.045
11
163.83
21
-141.045
0
LINE
8
Black
10
163.83
20
-141.045
11
163.824
21
-141.044
0
LINE
8
Black
10
163.824
20
-141.044
11
163.817
21
-141.044
0
LINE
8
Black
10
163.817
20
-141.044
11
163.811
21
-141.042
0
LINE
8
Black
10
163.811
20
-141.042
11
163.804
21
-141.04
0
LINE
8
Black
10
163.804
20
-141.04
11
163.799
21
-141.037
0
LINE
8
Black
10
163.799
20
-141.037
11
163.792
21
-141.035
0
LINE
8
Black
10
163.792
20
-141.035
11
163.787
21
-141.031
0
LINE
8
Black
10
163.787
20
-141.031
11
163.782
21
-141.027
0
LINE
8
Black
10
163.782
20
-141.027
11
163.778
21
-141.022
0
LINE
8
Black
10
163.778
20
-141.022
11
163.773
21
-141.018
0
LINE
8
Black
10
163.773
20
-141.018
11
163.769
21
-141.013
0
LINE
8
Black
10
163.769
20
-141.013
11
163.765
21
-141.007
0
LINE
8
Black
10
163.765
20
-141.007
11
163.763
21
-141.001
0
LINE
8
Black
10
163.763
20
-141.001
11
163.76
21
-140.996
0
LINE
8
Black
10
163.76
20
-140.996
11
163.758
21
-140.989
0
LINE
8
Black
10
163.758
20
-140.989
11
163.756
21
-140.983
0
LINE
8
Black
10
163.756
20
-140.983
11
163.756
21
-140.976
0
LINE
8
Black
10
163.756
20
-140.976
11
163.755
21
-140.97
0
LINE
8
Black
10
163.755
20
-140.97
11
163.755
21
-114.3
0
LINE
8
Black
10
163.755
20
-114.3
11
163.756
21
-114.294
0
LINE
8
Black
10
163.756
20
-114.294
11
163.756
21
-114.287
0
LINE
8
Black
10
163.756
20
-114.287
11
163.758
21
-114.281
0
LINE
8
Black
10
163.758
20
-114.281
11
163.76
21
-114.274
0
LINE
8
Black
10
163.76
20
-114.274
11
163.763
21
-114.269
0
LINE
8
Black
10
163.763
20
-114.269
11
163.765
21
-114.262
0
LINE
8
Black
10
163.765
20
-114.262
11
163.769
21
-114.257
0
LINE
8
Black
10
163.769
20
-114.257
11
163.773
21
-114.252
0
LINE
8
Black
10
163.773
20
-114.252
11
163.778
21
-114.248
0
LINE
8
Black
10
163.778
20
-114.248
11
163.782
21
-114.243
0
LINE
8
Black
10
163.782
20
-114.243
11
163.787
21
-114.239
0
LINE
8
Black
10
163.787
20
-114.239
11
163.792
21
-114.235
0
LINE
8
Black
10
163.792
20
-114.235
11
163.799
21
-114.233
0
LINE
8
Black
10
163.799
20
-114.233
11
163.804
21
-114.23
0
LINE
8
Black
10
163.804
20
-114.23
11
163.811
21
-114.228
0
LINE
8
Black
10
163.811
20
-114.228
11
163.817
21
-114.226
0
LINE
8
Black
10
163.817
20
-114.226
11
163.824
21
-114.226
0
LINE
8
Black
10
163.824
20
-114.226
11
163.83
21
-114.225
0
LINE
8
Black
10
163.83
20
-114.225
11
190.5
21
-114.225
0
LINE
8
Black
10
190.5
20
-114.225
11
190.506
21
-114.226
0
LINE
8
Black
10
163.905
20
-114.375
11
163.905
21
-140.895
0
LINE
8
Black
10
163.905
20
-140.895
11
190.425
21
-140.895
0
LINE
8
Black
10
190.425
20
-140.895
11
190.425
21
-114.375
0
LINE
8
Black
10
190.425
20
-114.375
11
163.905
21
-114.375
  0
ENDSEC
  0
EOF
